<?xml version="1.0" encoding="UTF-8"?>
<svg version="1.1" xmlns="http://www.w3.org/2000/svg" width="663" height="525">
<path d="M0 0 C19.8 0 39.6 0 60 0 C60 0.66 60 1.32 60 2 C58.52232361 3.45890808 58.52232361 3.45890808 56.48413086 5.14916992 C52.20675164 8.78856915 48.21744682 12.63750161 44.25390625 16.61328125 C43.55732407 17.30890671 42.86074188 18.00453217 42.14305115 18.72123718 C40.68732001 20.17629346 39.2328282 21.63259063 37.77954102 23.09008789 C35.54752732 25.32750895 33.31015865 27.55947677 31.07226562 29.79101562 C29.65332466 31.21061654 28.23469346 32.63052717 26.81640625 34.05078125 C26.14670303 34.71846024 25.47699982 35.38613922 24.78700256 36.0740509 C24.17223557 36.69197006 23.55746857 37.30988922 22.92407227 37.9465332 C22.38194595 38.48945511 21.83981964 39.03237701 21.28126526 39.5917511 C19.89110607 40.99184264 19.89110607 40.99184264 19 43 C18.34 43 17.68 43 17 43 C17.04713135 44.62627319 17.04713135 44.62627319 17.09521484 46.28540039 C17.20431196 50.33115594 17.27287489 54.3767832 17.32958984 58.42358398 C17.35965146 60.17055163 17.40051371 61.91736972 17.45263672 63.66381836 C17.5259298 66.18380707 17.55956001 68.7017914 17.5859375 71.22265625 C17.61690521 71.99585709 17.64787292 72.76905792 17.67977905 73.56568909 C17.683132 79.04242692 16.22755818 81.69215562 12.38955688 85.58201599 C9.24747907 88.78837346 9.74107979 92.26707428 9.765625 96.51953125 C10.05908729 99.62534046 11.14344386 101.52459181 13 104 C13 104.66 13 105.32 13 106 C19.68696996 108.71093377 24.5415446 110.05512198 31.6875 107.875 C35.73310944 105.58503239 37.12519815 104.27454823 39 100 C39.75858353 93.63824269 40.04711447 88.2515074 36 83 C35.1642041 82.58577286 34.3284082 82.17154572 33.46728516 81.74476624 C31 80 31 80 30.08325195 77.19358826 C28.86062318 65.05042063 27.64197624 52.65489957 35.14453125 42.32861328 C39.98975597 36.48440916 45.67869558 31.44114677 51.39672852 26.47467041 C54.10794757 24.08661364 56.72854068 21.60278066 59.359375 19.12695312 C64.49057888 14.32356818 69.71046071 9.62897502 75 5 C78.5747899 6.5180728 80.85811724 8.61574711 83.58496094 11.35791016 C84.93590851 12.70908432 84.93590851 12.70908432 86.31414795 14.08755493 C87.28766481 15.07128408 88.26107125 16.0551225 89.234375 17.0390625 C90.23713161 18.04555128 91.24033222 19.05159789 92.24395752 20.05722046 C94.87873813 22.69962147 97.50745611 25.34797428 100.13494873 27.99761963 C102.81939688 30.70256052 105.50954622 33.40181821 108.19921875 36.1015625 C113.47173618 41.39550174 118.73786057 46.69574283 124 52 C123.05742609 53.27167386 122.11276224 54.5417988 121.16723633 55.8112793 C120.37848869 56.87248238 120.37848869 56.87248238 119.57380676 57.9551239 C117.42764096 60.74367664 115.10406499 63.25273116 112.6875 65.8125 C108.30769194 70.50269991 104.20564148 75.35135631 100.1796875 80.3515625 C98.02242601 82.97275119 95.78689 85.49154281 93.5 88 C90.40444804 91.39598682 87.44848793 94.86171531 84.5625 98.4375 C81.48663412 102.24087503 78.31246834 105.90082652 75 109.5 C71.62997332 113.16307248 68.39282329 116.89002241 65.25 120.75 C64.51265625 121.65105469 63.7753125 122.55210937 63.015625 123.48046875 C61.78439632 125.0195046 60.57907409 126.58033597 59.421875 128.17578125 C56.0695446 132.62406582 53.64377763 133.63196236 48.18359375 134.48828125 C44.43583315 135.36655788 42.64044478 137.23075304 40 140 C37.70552699 143.96318065 37.54014376 147.47808029 38 152 C39.39335316 156.29881117 41.00559439 159.24235763 44.625 162 C50.39493514 163.70961041 55.60506486 163.70961041 61.375 162 C64.99090728 159.24502303 66.61458053 156.2987587 68 152 C68.29406179 148.53007087 68.29483205 145.92856898 67.2421875 142.61328125 C67 140 67 140 68.51953125 137.4921875 C69.65455078 136.19667969 69.65455078 136.19667969 70.8125 134.875 C71.64394531 133.91335937 72.47539062 132.95171875 73.33203125 131.9609375 C76.7128794 128.20883955 80.1071195 124.47016228 83.52734375 120.75390625 C86.74709519 117.16792716 89.75905176 113.43298508 92.78515625 109.68359375 C95.66480887 106.19449084 98.70693876 102.87003079 101.75390625 99.52734375 C104.06187598 96.93037607 106.25555863 94.26595987 108.4375 91.5625 C114.25984045 84.37139881 120.4401315 77.52712517 127 71 C127.61076538 80.19642421 128.06823573 89.38560481 128.34711647 98.59808922 C128.48121874 102.88026976 128.66162852 107.14833054 128.96142578 111.42236328 C131.0294231 141.68256573 131.0294231 141.68256573 121.13183594 153.14550781 C115.76229299 158.99746917 109.75606458 164.15428882 103.47445679 168.99917603 C100.94739108 170.7599545 100.94739108 170.7599545 100 173 C100.58058167 173.26279251 101.16116333 173.52558502 101.75933838 173.79634094 C108.72067557 177.53589558 114.44111361 184.27800789 120.10986328 189.69555664 C121.85513193 191.34286172 123.62233952 192.96726047 125.41162109 194.56665039 C141.0374565 208.56437175 141.0374565 208.56437175 142.17382812 218.33447266 C142.37794931 223.91413104 142.15566871 229.52334636 141 235 C138.65021618 237.34978382 132.77282815 236.48609456 129.51049805 236.53662109 C125.93449821 236.46810525 123.63167301 236.38119919 120.52734375 234.5078125 C118.8125 232.625 118.8125 232.625 117.328125 230.6953125 C115.25354681 228.04717445 113.25475355 227.53138833 110 227 C104.334692 226.93160594 100.37459402 228.23581445 96 232 C92.6946624 236.73765055 92.19203454 241.38567589 93 247 C94.36997157 249.87146994 94.36997157 249.87146994 96 252 C96 252.66 96 253.32 96 254 C101.93082101 256.40438689 107.72358285 258.6806153 114.0078125 256.2109375 C117.18355813 254.47025684 118.97672267 253.034916 121 250 C123.06298828 249.65942383 123.06298828 249.65942383 125.5703125 249.70703125 C126.46621094 249.71669922 127.36210937 249.72636719 128.28515625 249.73632812 C129.22230469 249.76146484 130.15945313 249.78660156 131.125 249.8125 C132.06988281 249.82603516 133.01476562 249.83957031 133.98828125 249.85351562 C136.32608779 249.88893694 138.66276237 249.93832729 141 250 C141.18585952 257.7016329 141.32775613 265.4030317 141.41449738 273.10640049 C141.45614449 276.68412888 141.51256595 280.26031659 141.60351562 283.8371582 C141.69083846 287.29323741 141.73835288 290.74784122 141.75901794 294.20493889 C141.78086247 296.15678018 141.84325593 298.10803238 141.90637207 300.05897522 C141.91073139 308.72148754 141.91073139 308.72148754 139.56114197 312.01991272 C137.65405273 313.66845703 137.65405273 313.66845703 135.44906616 315.24043274 C132.56782682 317.31050112 130.20167919 319.65267447 127.70141602 322.16918945 C126.73480673 323.13306181 125.76796829 324.09670441 124.80091858 325.06013489 C123.78511971 326.07772249 122.76945192 327.09544096 121.75390625 328.11328125 C120.69170955 329.17480293 119.62936457 330.23617624 118.56687927 331.29740906 C116.35749489 333.50532963 114.14990323 335.71502254 111.94360352 337.92602539 C109.1134932 340.76187442 106.27885965 343.59315327 103.44290257 346.42315388 C101.25614427 348.6063066 99.07176328 350.79182539 96.88810539 352.97807884 C95.84302113 354.02383021 94.79719344 355.06883917 93.75061226 356.11309242 C92.29558608 357.56558764 90.84378891 359.02123425 89.39282227 360.4777832 C88.15327538 361.71852348 88.15327538 361.71852348 86.88868713 362.98432922 C84.95106884 364.86017699 84.95106884 364.86017699 84 367 C80.98957455 366.40383544 79.03530788 365.52104452 76.6015625 363.6640625 C75.96492676 363.18275879 75.32829102 362.70145508 74.67236328 362.20556641 C73.9967334 361.68397949 73.32110352 361.16239258 72.625 360.625 C71.91456543 360.08407715 71.20413086 359.5431543 70.47216797 358.98583984 C64.84958887 354.6915277 59.27937471 350.33032251 53.73046875 345.94140625 C48.5551877 341.85133333 43.33889288 337.81382388 38.12744141 333.77001953 C37.40347168 333.20782715 36.67950195 332.64563477 35.93359375 332.06640625 C35.29478271 331.57084229 34.65597168 331.07527832 33.99780273 330.56469727 C33.33852783 330.04834717 32.67925293 329.53199707 32 329 C30.66134888 328.26124634 30.66134888 328.26124634 29.2956543 327.50756836 C25.59508595 323.46539698 26.28545396 319.1021706 26.3359375 313.8125 C26.33115387 312.71784424 26.32637024 311.62318848 26.32144165 310.49536133 C26.31804079 308.18211428 26.32725608 305.8688193 26.34814453 303.55566406 C26.37490496 300.01258289 26.3484004 296.47267 26.31640625 292.9296875 C26.31971031 290.68228467 26.32611646 288.4348838 26.3359375 286.1875 C26.32581635 285.12700439 26.31569519 284.06650879 26.30526733 282.97387695 C26.42289761 275.60127722 26.42289761 275.60127722 29.45947266 272.4375 C30.29784668 271.963125 31.1362207 271.48875 32 271 C34.58027235 266.69954608 34.67615884 261.87502176 34 257 C32.6691467 253.25922316 30.76973685 250.60768698 27.625 248.125 C21.83967895 245.64557669 17.87636311 245.8458825 12.0546875 247.97265625 C8.45939166 249.77030417 6.74835155 252.5032969 5 256 C4.47059979 261.31135952 4.33636371 265.67272741 6.75 270.5 C8.80351133 273.01283589 8.80351133 273.01283589 11.12138367 274.32557678 C13 276 13 276 13.41804504 278.4059906 C13.38168442 279.35796829 13.34532379 280.30994598 13.30786133 281.29077148 C13.27916458 282.3729747 13.25046783 283.45517792 13.22090149 284.57017517 C13.17507431 285.7419783 13.12924713 286.91378143 13.08203125 288.12109375 C13.04289906 290.60867388 13.00720363 293.09630999 12.97460938 295.58398438 C12.90484639 299.50319528 12.81330468 303.41682075 12.66088867 307.33374023 C11.37078683 322.76680504 11.37078683 322.76680504 17.19750977 336.29003906 C20.24885458 338.97828087 23.51895029 341.04147243 27.10424805 342.94235229 C30.10056242 344.61400824 32.64203611 346.72519689 35.3125 348.875 C36.91857601 350.1055259 38.52465762 351.33604449 40.13085938 352.56640625 C43.9480135 355.49408768 47.75726973 358.43184162 51.5625 361.375 C52.33698486 361.97038574 53.11146973 362.56577148 53.90942383 363.17919922 C54.64185303 363.74654785 55.37428223 364.31389648 56.12890625 364.8984375 C56.77931885 365.40036621 57.42973145 365.90229492 58.09985352 366.41943359 C60.19798439 368.16468598 62.09731708 370.04526479 64 372 C57.52634336 372.10228521 51.05289872 372.17183275 44.57861328 372.21972656 C42.38094292 372.23971418 40.18332486 372.26691362 37.98583984 372.30175781 C14.10903797 372.67059528 14.10903797 372.67059528 5 368 C4.14155644 367.63573756 3.28311289 367.27147512 2.39865589 366.89617443 C0 365 0 365 -0.63085651 361.69479084 C-0.6592711 360.29748979 -0.65987292 358.89946699 -0.63923645 357.50202942 C-0.65176996 356.34662274 -0.65176996 356.34662274 -0.66455668 355.16787452 C-0.68655936 352.57866426 -0.67285828 349.99086252 -0.65942383 347.40161133 C-0.66787293 345.54896463 -0.67851514 343.69632681 -0.69119263 341.84370422 C-0.71941828 336.80672932 -0.71685336 331.77017909 -0.70889878 326.73314881 C-0.70578072 321.47199312 -0.7307875 316.21097436 -0.75285339 310.94987488 C-0.79035715 300.98389729 -0.80244513 291.01805618 -0.8054778 281.05201501 C-0.81016176 269.7074762 -0.84306381 258.36307468 -0.87837565 247.01859629 C-0.95039007 223.67908084 -0.98683968 200.33961756 -1 177 C2 177 2 177 3.98046875 178.72265625 C4.70878906 179.49480469 5.43710937 180.26695312 6.1875 181.0625 C8.94114596 183.90881674 11.67812331 186.67516692 14.6875 189.25 C18.55438412 192.56668618 22.27738321 196.02363206 26 199.5 C31.40162448 204.54304115 31.40162448 204.54304115 36.9375 209.4375 C41.63902892 213.48490315 46.12607933 217.76739909 50.63452148 222.02709961 C51.56373413 222.90120483 51.56373413 222.90120483 52.51171875 223.79296875 C53.06303467 224.3139917 53.61435059 224.83501465 54.18237305 225.37182617 C56.05587461 227.13503761 56.05587461 227.13503761 58.6875 228.73852539 C61 231 61 231 61.56762695 234.39160156 C61.54144287 235.7112793 61.51525879 237.03095703 61.48828125 238.390625 C61.48120651 239.09523865 61.47413177 239.79985229 61.46684265 240.52581787 C61.43893357 242.76830891 61.37621287 245.00826871 61.3125 247.25 C61.28741211 248.77340134 61.26459978 250.29684197 61.24414062 251.8203125 C61.18912213 255.54769249 61.10287804 259.27359906 61 263 C60.04673828 263.41958984 60.04673828 263.41958984 59.07421875 263.84765625 C56.26448721 265.40861822 55.95192902 266.99776231 55 270 C54.67 270.99 54.34 271.98 54 273 C53.41584775 278.95835298 54.64458231 283.14232013 58 288 C61.68841869 291.09029674 65.23927767 291.75375574 70 292 C75.53906193 291.04498932 78.45217745 289.35875342 82 285 C84.54272447 280.95475652 84.18134635 277.03383614 83.61328125 272.44140625 C82.36071228 267.4550648 79.21590998 264.81060665 75 262 C74.83201438 259.32259727 74.84450164 256.87547221 74.98828125 254.2109375 C75.0360053 252.61332536 75.08217871 251.01566628 75.12695312 249.41796875 C75.2133265 246.90213009 75.31181107 244.38864797 75.4387207 241.87451172 C76.21043526 232.16424935 76.21043526 232.16424935 73.32641602 223.18164062 C71.32068804 221.16503334 69.35002232 219.59128053 67 218 C65.75896958 216.93027793 64.52797181 215.84867651 63.3125 214.75 C62.65636719 214.18539062 62.00023437 213.62078125 61.32421875 213.0390625 C58.37589578 210.45246655 55.50085394 207.79163286 52.625 205.125 C47.96076165 200.80232453 43.26305663 196.52183195 38.52734375 192.27734375 C35.150766 189.2347706 31.80519519 186.15881256 28.45849609 183.08349609 C25.34348908 180.22383388 22.21139758 177.38476963 19.0625 174.5625 C4.44345238 161.44345238 4.44345238 161.44345238 0 157 C-0.09676414 154.97505378 -0.12186986 152.94667458 -0.12025452 150.91941833 C-0.12110894 150.27744619 -0.12196337 149.63547404 -0.12284368 148.9740482 C-0.12450021 146.80745946 -0.11897433 144.64094693 -0.11352539 142.47436523 C-0.11324353 140.92743939 -0.11340123 139.38051341 -0.1139679 137.83358765 C-0.11425592 133.62095968 -0.10835849 129.40835994 -0.10139394 125.19573855 C-0.09516112 120.79814212 -0.09455666 116.40054511 -0.09336853 112.00294495 C-0.090255 103.66959487 -0.08204132 95.33625785 -0.07201904 87.00291353 C-0.06085857 77.51818746 -0.05534762 68.03346078 -0.05032361 58.54872978 C-0.03985873 39.03247761 -0.02151298 19.51624334 0 0 Z " fill="#CAB4FE" transform="translate(362,83)"/>
<path d="M0 0 C3.5022309 0.87555772 5.10972055 1.5318053 7.9921875 3.44921875 C8.76965332 3.96129883 9.54711914 4.47337891 10.34814453 5.00097656 C11.18200684 5.5575293 12.01586914 6.11408203 12.875 6.6875 C14.66079092 7.86429468 16.44727625 9.04003611 18.234375 10.21484375 C19.16958984 10.83085449 20.10480469 11.44686523 21.06835938 12.08154297 C26.05955409 15.34776616 31.09130981 18.54980341 36.125 21.75 C37.07874512 22.35803467 38.03249023 22.96606934 39.01513672 23.5925293 C40.34182373 24.43618042 40.34182373 24.43618042 41.6953125 25.296875 C42.47922363 25.79541992 43.26313477 26.29396484 44.07080078 26.80761719 C45.97892787 28.02689416 45.97892787 28.02689416 48 29 C48 175.19 48 321.38 48 472 C44.16919545 470.46767818 41.46443027 469.14173997 38.11328125 466.91015625 C37.18281982 466.29567627 36.2523584 465.68119629 35.29370117 465.0480957 C34.30990479 464.39284912 33.3261084 463.73760254 32.3125 463.0625 C24.13599492 457.65290707 15.9095582 452.39130038 7.40942383 447.50219727 C6.72130615 447.09541748 6.03318848 446.6886377 5.32421875 446.26953125 C4.72697998 445.92510986 4.12974121 445.58068848 3.5144043 445.22583008 C1.58467005 443.6638124 0.95184556 442.29006131 0 440 C-0.22705078 437.80175781 -0.22705078 437.80175781 -0.1953125 435.453125 C-0.18564453 434.18662109 -0.18564453 434.18662109 -0.17578125 432.89453125 C-0.15064453 431.58548828 -0.15064453 431.58548828 -0.125 430.25 C-0.11597656 429.36183594 -0.10695313 428.47367187 -0.09765625 427.55859375 C-0.07414577 425.37211942 -0.04128499 423.18619906 0 421 C-0.97065903 421.13181168 -1.94131805 421.26362335 -2.94139099 421.39942932 C-39.52930484 426.18902247 -80.42774666 430.19680418 -111.72800636 407.25784492 C-136.48700547 388.17326722 -154.59844938 364.30531153 -158.69924736 332.82617378 C-159.78094091 322.84910228 -159.99493538 312.90216365 -160 302.875 C-160.01336018 301.7978561 -160.02672035 300.7207122 -160.04048538 299.61092758 C-160.29313599 276.89078502 -158.88572589 257.58984081 -142.47729492 240.66067505 C-136.33567574 234.67093301 -129.83219703 229.18153252 -123 224 C-124.35138467 220.78399771 -125.53768961 219.41270794 -128.53271484 217.66943359 C-136.14710699 212.42507451 -140.82309385 206.40934352 -142.79401302 197.32277584 C-145.04555135 184.8718374 -145.48488837 172.25049983 -145.625 159.625 C-145.64018803 158.58027653 -145.65537605 157.53555305 -145.67102432 156.4591713 C-145.97744587 126.52097009 -142.03909298 101.24640576 -120.87097168 78.88464355 C-98.9997213 56.64868695 -77.58928046 48.01478912 -46.38872051 47.7462492 C-30.79254962 47.81188424 -15.50857238 49.2484259 0 51 C0 34.17 0 17.34 0 0 Z M14 25 C13.56505024 77.02688998 13.23028706 129.05359617 13.02975874 181.08194686 C13.0059955 187.22520713 12.98140336 193.36846382 12.95629883 199.51171875 C12.95131493 200.73472308 12.94633103 201.95772741 12.94119611 203.21779248 C12.85853447 223.0172132 12.70873738 242.81558509 12.53409687 262.61438373 C12.35637561 282.93199917 12.25087514 303.24906561 12.2123186 323.56742644 C12.18625484 336.10428768 12.10396942 348.63818461 11.94958713 361.17413315 C11.84909771 369.77228345 11.81880801 378.36890308 11.84347383 386.96759787 C11.85563969 391.92896934 11.83710344 396.88516642 11.73509598 401.84561539 C10.43456817 420.58973269 10.43456817 420.58973269 15.95211959 437.79695415 C20.41523317 442.02549602 27.5090305 447 34 447 C34.34330503 394.93890578 34.60762996 342.8779259 34.76597994 290.81592248 C34.78474063 284.67008579 34.80415545 278.52425133 34.82397461 272.37841797 C34.82987659 270.54312454 34.82987659 270.54312454 34.83589781 268.67075448 C34.90117469 248.85725996 35.0194462 229.04441802 35.15729194 209.23131068 C35.2975472 188.90238003 35.3808776 168.57379121 35.41132742 148.24439657 C35.4319139 135.69880498 35.49693592 123.15505774 35.618747 110.61003391 C35.69801645 102.00828403 35.72200725 93.40748803 35.70252066 84.80539937 C35.69290768 79.84099235 35.70766902 74.87980789 35.78808212 69.91597366 C35.8612219 65.36786863 35.86470597 60.82514253 35.81348342 56.27678697 C35.80715689 54.63451935 35.82609977 52.99191293 35.87324774 51.35031004 C36.24390407 42.77423771 36.24390407 42.77423771 32.52252014 35.35330483 C27.0623663 30.70813829 20.69902121 27.47280889 14 25 Z M-65 66 C-62.09405852 68.90594148 -59.42493722 71.57409234 -56.3112793 74.16503906 C-26.03799514 99.75707005 -26.03799514 99.75707005 -24.1509552 112.04043579 C-23.54825118 119.81312547 -24.76411218 127.21786815 -25.94335938 134.88818359 C-26.00833572 138.45796131 -25.49886142 139.59804666 -23.171875 142.23828125 C-22.61081055 142.71950439 -22.04974609 143.20072754 -21.47167969 143.6965332 C-18.87089547 146.00004796 -18.96293918 148.45214204 -18.6875 151.8125 C-18.75496797 157.05572502 -21.19389759 160.06011223 -24.6875 163.8125 C-28.33252849 165.68427139 -31.9233845 166.11343626 -36 166 C-41.37285867 164.17525555 -44.47401035 161.05197929 -47 156 C-47.57425085 151.29302583 -47.45554552 147.87855208 -45.25 143.625 C-43 141 -43 141 -40.92883301 139.67463684 C-37.64854986 136.82665416 -37.96020301 133.40979006 -37.60241699 129.26338196 C-37.19049134 118.27959124 -37.91536329 110.63608009 -45.30493164 102.12234497 C-49.85306503 97.46494758 -54.62180864 93.11934647 -59.5 88.8125 C-61.48905745 86.97483423 -63.45750749 85.11573705 -65.42578125 83.25585938 C-70.21660406 78.75959855 -75.07573381 74.34947561 -80 70 C-85.55439924 74.62491379 -90.68525669 79.55360964 -95.77734375 84.6796875 C-96.58869278 85.49245148 -97.40004181 86.30521545 -98.23597717 87.14260864 C-100.8055259 89.71771738 -103.37155968 92.2962962 -105.9375 94.875 C-107.68791929 96.63043946 -109.438568 98.38565017 -111.18945312 100.140625 C-115.46229302 104.42444082 -119.73225899 108.71110472 -124 113 C-123.05263689 114.27606056 -122.10347472 115.5507856 -121.15356445 116.82495117 C-120.62519485 117.53495773 -120.09682526 118.24496429 -119.55244446 118.97648621 C-117.5694537 121.56119005 -115.41530716 123.93691127 -113.1875 126.3125 C-109.8290922 129.95203013 -106.60769533 133.64425766 -103.5 137.5 C-99.66164586 142.25739668 -95.60377641 146.75783918 -91.46484375 151.25390625 C-89.07292703 153.91875166 -86.80745116 156.64831825 -84.5625 159.4375 C-80.86809171 164.02118179 -76.98179758 168.35767434 -72.94775391 172.64013672 C-70.15751269 175.63045147 -67.75473576 178.69841891 -65.4375 182.0625 C-62.29349593 186.27470786 -59.32695508 187.2498173 -54.3046875 188.40234375 C-51.1126239 189.23011617 -49.2448718 190.61482371 -47 193 C-44.74628025 196.97083957 -44.60443566 200.49056654 -45 205 C-46.73081274 209.64586577 -48.70368162 212.47824791 -53 215 C-57.49287691 216.21249543 -60.90718681 216.39176322 -65.3125 214.8125 C-69.09158918 212.26381195 -71.5397545 210.38073649 -73 206 C-73.09225211 204.50225982 -73.1300019 203.00057026 -73.125 201.5 C-73.12886719 200.33984375 -73.12886719 200.33984375 -73.1328125 199.15625 C-73 197 -73 197 -72 194 C-72.54527344 193.40574219 -73.09054688 192.81148438 -73.65234375 192.19921875 C-77.70447542 187.74533727 -81.65581504 183.24908814 -85.4375 178.5625 C-89.29941675 173.78715598 -93.37674224 169.26332315 -97.53515625 164.74609375 C-99.92707297 162.08124834 -102.19254884 159.35168175 -104.4375 156.5625 C-108.16043018 151.94844291 -112.07113277 147.56766096 -116.1027832 143.22583008 C-118.67716727 140.45232238 -121.1898624 137.64647062 -123.625 134.75 C-124.800625 133.38875 -124.800625 133.38875 -126 132 C-126.33 132 -126.66 132 -127 132 C-127.72299097 142.49402539 -128.21993033 152.9852063 -128.5 163.5 C-128.52039715 164.26364868 -128.5407943 165.02729736 -128.56180954 165.81408691 C-129.73263907 189.14001729 -129.73263907 189.14001729 -120.10519409 209.47497559 C-115.72250382 213.88873142 -110.70176634 217.52188445 -105.31665039 220.6171875 C-103 222 -103 222 -102 224 C-102.5862616 224.26781784 -103.17252319 224.53563568 -103.77655029 224.81156921 C-106.03040091 226.01624924 -107.68049687 227.30771138 -109.57519531 229.01489258 C-110.25559875 229.62766556 -110.9360022 230.24043854 -111.63702393 230.8717804 C-114.72914279 233.72632058 -117.78748727 236.61439499 -120.828125 239.52368164 C-122.42965474 241.03722411 -124.05137176 242.52971492 -125.69335938 243.99926758 C-136.29982272 253.15642779 -136.29982272 253.15642779 -141.04492188 265.82177734 C-141.21135523 270.96555808 -140.75719225 275.91532222 -140 281 C-137.97499744 281.07729017 -135.94998375 281.15430812 -133.92489624 281.2293396 C-132.36971831 281.29056354 -130.81509948 281.36642128 -129.26098633 281.45043945 C-125.04050153 281.52819711 -123.50647363 281.42657724 -120.15234375 278.6015625 C-119.08693359 277.31378906 -119.08693359 277.31378906 -118 276 C-113.88769862 273.54843572 -111.03900324 272.68651106 -106.375 273.5 C-102.08290816 274.71377725 -99.64997096 276.30610108 -97 280 C-94.89608367 284.44052386 -94.70573098 288.03619678 -96.0625 292.75 C-97.64191341 296.71562675 -99.11263729 298.97181076 -103 301 C-109.07469432 302.63285956 -113.44005199 302.16153906 -119 299 C-119.54527344 298.30777344 -120.09054688 297.61554688 -120.65234375 296.90234375 C-124.17276562 294.04968909 -127.36540927 294.56094634 -131.75 294.75 C-132.54277344 294.76804687 -133.33554688 294.78609375 -134.15234375 294.8046875 C-136.10208348 294.85166918 -138.05119878 294.92340956 -140 295 C-140.17800287 302.54358503 -140.30029006 310.08662546 -140.38452148 317.63183594 C-140.41964715 320.19649494 -140.46735936 322.76101453 -140.52807617 325.32519531 C-140.61333416 329.01923056 -140.65276997 332.7114078 -140.68359375 336.40625 C-140.71972275 337.5461438 -140.75585175 338.6860376 -140.79307556 339.86047363 C-140.79568193 345.18699021 -140.64844408 348.97372956 -137.10644531 353.12084961 C-135.75796882 354.43509638 -134.38707987 355.72656258 -133 357 C-131.37386741 358.67972226 -129.75358128 360.3651164 -128.13793945 362.05493164 C-126.29954066 363.92660396 -124.45877774 365.79552243 -122.61328125 367.66015625 C-122.12822805 368.15053312 -121.64317486 368.64091 -121.14342308 369.14614677 C-118.58729241 371.72874857 -116.02767579 374.30784203 -113.46557617 376.88452148 C-111.35110169 379.01244828 -109.24418187 381.14746158 -107.14331055 383.28881836 C-104.59158403 385.88967989 -102.02796814 388.47822134 -99.45512962 391.05819511 C-98.48003506 392.04001219 -97.50920824 393.02608695 -96.54277992 394.01643562 C-95.1982317 395.39241339 -93.83644031 396.75147855 -92.47387695 398.10961914 C-91.70445267 398.88713028 -90.93502838 399.66464142 -90.14228821 400.4657135 C-88.15062328 402.23589035 -88.15062328 402.23589035 -85.88298035 401.85520935 C-83.04215377 400.56496675 -80.81955038 398.74855863 -78.375 396.8125 C-77.20963697 395.89713344 -76.04427229 394.98176898 -74.87890625 394.06640625 C-74.25387207 393.57156738 -73.62883789 393.07672852 -72.98486328 392.56689453 C-70.1928862 390.3628467 -67.38330562 388.18209549 -64.56640625 386.01000977 C-63.0451538 384.82210802 -61.53878241 383.6149346 -60.046875 382.39038086 C-56.1216012 379.20526108 -52.45973027 376.63427426 -47.84765625 374.5390625 C-42.09317964 371.634877 -37.81187495 368.9900793 -35 363 C-33.36747948 355.6436911 -33.44011898 348.0611349 -33.5 340.5625 C-33.50697906 339.06405548 -33.50697906 339.06405548 -33.51409912 337.53533936 C-33.55322406 334.62478933 -33.65133348 331.72422148 -33.78125 328.81640625 C-33.807565 327.93442062 -33.83388 327.052435 -33.86099243 326.14372253 C-34.24689423 320.46950269 -35.61069148 317.43078378 -39.63269043 313.38145447 C-42.02521358 310.96418053 -42.18286806 309.03946522 -42.25 305.75 C-42.16661417 301.42088569 -41.65067627 298.56184624 -39 295 C-35.08242717 291.96526048 -31.33457916 290.6526593 -26.375 290.9375 C-21.64098448 291.74694307 -19.25731463 293.50434527 -16 297 C-13.71046869 300.95464498 -13.5331636 304.4872481 -14 309 C-15.37369749 312.44132463 -16.96482077 315.31845541 -20.12513733 317.39915466 C-22.21555215 318.8403972 -22.21555215 318.8403972 -22.39353943 321.22962952 C-22.34544632 322.09881516 -22.29735321 322.96800079 -22.24780273 323.86352539 C-22.20554062 324.85208023 -22.1632785 325.84063507 -22.11973572 326.85914612 C-22.05830887 327.92785446 -21.99688202 328.99656281 -21.93359375 330.09765625 C-21.85860374 332.36644805 -21.78642874 334.63533431 -21.71679688 336.90429688 C-21.58719083 340.47912081 -21.43824241 344.04919053 -21.23901367 347.62084961 C-20.21315057 366.99393137 -20.21315057 366.99393137 -23.20025635 372.01922607 C-26.54995576 375.70439796 -30.5859173 377.74887079 -35 380 C-37.2444431 381.58412914 -39.35461807 383.2790498 -41.5 385 C-42.5736045 385.8293097 -43.64890427 386.65643359 -44.7265625 387.48046875 C-46.97391687 389.20894269 -49.21828103 390.9412168 -51.4609375 392.67578125 C-56.90596531 396.88326765 -62.3550063 401.0616323 -68 405 C-67.67 405.66 -67.34 406.32 -67 407 C-44.56 406.67 -22.12 406.34 1 406 C1 343.96 1 281.92 1 218 C-5.37698402 222.71460028 -5.37698402 222.71460028 -11.21875 227.83984375 C-11.92386719 228.51080078 -12.62898438 229.18175781 -13.35546875 229.87304688 C-14.06316406 230.55431641 -14.77085937 231.23558594 -15.5 231.9375 C-20.29471607 236.52697777 -25.12578572 241.03457332 -30.14257812 245.38110352 C-32.8087779 247.7049167 -35.40221447 250.09987206 -38 252.5 C-41.2778141 255.52004872 -44.56583268 258.52204137 -47.9375 261.4375 C-59.35451484 269.91922064 -59.35451484 269.91922064 -66.19287109 280.69628906 C-66.2643079 283.86115585 -66.32204353 287.02535056 -66.35009766 290.19091797 C-66.36661471 291.55665173 -66.39384955 292.92230055 -66.43212891 294.28759766 C-66.48711332 296.25890832 -66.50567176 298.23112769 -66.5234375 300.203125 C-66.54325684 301.38551758 -66.56307617 302.56791016 -66.58349609 303.78613281 C-65.83457122 307.91117341 -64.06873183 309.25525897 -61 312 C-59.64406769 316.06779694 -59.46924415 319.74668259 -60 324 C-62.06068894 327.9741858 -64.1942541 330.66313849 -68 333 C-72.64432556 333.7762104 -77.69948931 334.06683988 -82.046875 332.05078125 C-85.21798766 329.56255671 -87.07503019 326.88487322 -88 323 C-88.47696886 317.75334256 -87.86233294 314.44155111 -85 310 C-84.14768799 309.44795898 -83.29537598 308.89591797 -82.41723633 308.32714844 C-79.64001728 306.12372505 -79.64001728 306.12372505 -79.43237305 302.33300781 C-79.43316036 300.87280754 -79.46116419 299.41245008 -79.51171875 297.953125 C-79.52233086 296.79632233 -79.52233086 296.79632233 -79.53315735 295.6161499 C-79.56108422 293.15976788 -79.62381261 290.70568949 -79.6875 288.25 C-79.71258539 286.58206424 -79.73539815 284.91409264 -79.75585938 283.24609375 C-79.81090438 279.16317873 -79.89715943 275.08197951 -80 271 C-79.37383789 270.70053467 -78.74767578 270.40106934 -78.10253906 270.0925293 C-75.83654068 268.91506265 -74.49562859 267.66405265 -72.75 265.8125 C-69.72703655 262.70006194 -66.57668699 259.84057523 -63.29296875 257.0078125 C-60.53094118 254.58927388 -57.82602288 252.11108624 -55.125 249.625 C-48.98575021 243.97769888 -42.78833624 238.39728218 -36.578125 232.828125 C-31.9855176 228.70355402 -27.4182914 224.55368871 -22.875 220.375 C-19.57260276 217.33895868 -16.25794398 214.32143508 -12.875 211.375 C-12.30232077 210.86342818 -11.72964153 210.35185637 -11.13960838 209.82478237 C-9 208 -9 208 -6.4739933 206.16680241 C-2.6488985 203.2012418 0.44911943 200.7861979 1.90727615 196.05821037 C2.22822838 192.59106764 2.23856238 189.24987101 2.13525391 185.76928711 C2.13671417 184.47074799 2.13817444 183.17220886 2.13967896 181.83432007 C2.14253083 178.29842976 2.08404543 174.76598036 2.01393938 171.23088527 C1.95112226 167.52752267 1.94552868 163.82406767 1.9336853 160.12025452 C1.90269115 153.11806227 1.82075442 146.11744455 1.72019041 139.11594349 C1.58715887 129.64697213 1.53346692 120.17756548 1.47516823 110.70789433 C1.3813368 95.80408511 1.18207191 80.9035974 1 66 C-20.78 66 -42.56 66 -65 66 Z " fill="#00B8FB" transform="translate(300,33)"/>
<path d="M0 0 C4.90003912 4.14521923 9.64272768 8.41072035 14.3125 12.8125 C20.14415055 18.28231972 26.03283505 23.67793397 32 29 C38.17510592 34.52509477 44.30079146 40.09790054 50.35864258 45.7512207 C50.87450928 46.23034912 51.39037598 46.70947754 51.921875 47.203125 C52.59621582 47.83202637 52.59621582 47.83202637 53.28417969 48.47363281 C55.16585933 50.20723491 55.16585933 50.20723491 58.15576172 52.20678711 C61 55 61 55 61.68115234 58.50512695 C61.64973145 59.81956787 61.61831055 61.13400879 61.5859375 62.48828125 C61.57744781 63.19147995 61.56895813 63.89467865 61.56021118 64.6191864 C61.52678324 66.85189045 61.45154502 69.08089979 61.375 71.3125 C61.34488573 72.8313278 61.31751245 74.35021259 61.29296875 75.86914062 C61.22703363 79.58061534 61.1235945 83.28994673 61 87 C60.04673828 87.41958984 60.04673828 87.41958984 59.07421875 87.84765625 C56.26448721 89.40861822 55.95192902 90.99776231 55 94 C54.505 95.485 54.505 95.485 54 97 C53.41584775 102.95835298 54.64458231 107.14232013 58 112 C61.68841869 115.09029674 65.23927767 115.75375574 70 116 C75.53906193 115.04498932 78.45217745 113.35875342 82 109 C84.54272447 104.95475652 84.18134635 101.03383614 83.61328125 96.44140625 C82.36071228 91.4550648 79.21590998 88.81060665 75 86 C74.70811396 83.32804644 74.60385741 80.89120853 74.63671875 78.21875 C74.63597099 77.0648175 74.63597099 77.0648175 74.63520813 75.88757324 C74.63754994 74.26014627 74.64728487 72.63271577 74.66381836 71.00537109 C74.68740772 68.50976282 74.68438102 66.01522261 74.67773438 63.51953125 C74.68331113 61.94009778 74.690421 60.36066882 74.69921875 58.78125 C74.69830734 58.0322644 74.69739594 57.28327881 74.69645691 56.51159668 C74.76897241 51.23102759 74.76897241 51.23102759 77 49 C77.495 58.405 77.495 58.405 78 68 C83.81648129 67.19900426 83.81648129 67.19900426 89 65 C90.17082878 62.07085835 90.17082878 62.07085835 91 59 C92.625 57.125 92.625 57.125 94 56 C93.835 56.804375 93.67 57.60875 93.5 58.4375 C92.56701047 65.08505042 91.88395998 70.34044497 96 76 C96 76.66 96 77.32 96 78 C101.93082101 80.40438689 107.72358285 82.6806153 114.0078125 80.2109375 C117.18355813 78.47025684 118.97672267 77.034916 121 74 C123.06298828 73.65942383 123.06298828 73.65942383 125.5703125 73.70703125 C126.46621094 73.71669922 127.36210937 73.72636719 128.28515625 73.73632812 C129.22230469 73.76146484 130.15945313 73.78660156 131.125 73.8125 C132.54232422 73.83280273 132.54232422 73.83280273 133.98828125 73.85351562 C136.32608779 73.88893694 138.66276237 73.93832729 141 74 C141.18585952 81.7016329 141.32775613 89.4030317 141.41449738 97.10640049 C141.45614449 100.68412888 141.51256595 104.26031659 141.60351562 107.8371582 C141.69083846 111.29323741 141.73835288 114.74784122 141.75901794 118.20493889 C141.78086247 120.15678018 141.84325593 122.10803238 141.90637207 124.05897522 C141.91073139 132.72148754 141.91073139 132.72148754 139.56114197 136.01991272 C137.65405273 137.66845703 137.65405273 137.66845703 135.44906616 139.24043274 C132.56782682 141.31050112 130.20167919 143.65267447 127.70141602 146.16918945 C126.73480673 147.13306181 125.76796829 148.09670441 124.80091858 149.06013489 C123.78511971 150.07772249 122.76945192 151.09544096 121.75390625 152.11328125 C120.69170955 153.17480293 119.62936457 154.23617624 118.56687927 155.29740906 C116.35749489 157.50532963 114.14990323 159.71502254 111.94360352 161.92602539 C109.1134932 164.76187442 106.27885965 167.59315327 103.44290257 170.42315388 C101.25614427 172.6063066 99.07176328 174.79182539 96.88810539 176.97807884 C95.84302113 178.02383021 94.79719344 179.06883917 93.75061226 180.11309242 C92.29558608 181.56558764 90.84378891 183.02123425 89.39282227 184.4777832 C88.15327538 185.71852348 88.15327538 185.71852348 86.88868713 186.98432922 C84.95106884 188.86017699 84.95106884 188.86017699 84 191 C80.98957455 190.40383544 79.03530788 189.52104452 76.6015625 187.6640625 C75.96492676 187.18275879 75.32829102 186.70145508 74.67236328 186.20556641 C73.9967334 185.68397949 73.32110352 185.16239258 72.625 184.625 C71.91456543 184.08407715 71.20413086 183.5431543 70.47216797 182.98583984 C64.84958887 178.6915277 59.27937471 174.33032251 53.73046875 169.94140625 C48.5551877 165.85133333 43.33889288 161.81382388 38.12744141 157.77001953 C37.40347168 157.20782715 36.67950195 156.64563477 35.93359375 156.06640625 C35.29478271 155.57084229 34.65597168 155.07527832 33.99780273 154.56469727 C33.33852783 154.04834717 32.67925293 153.53199707 32 153 C31.10756592 152.50749756 30.21513184 152.01499512 29.2956543 151.50756836 C25.59508595 147.46539698 26.28545396 143.1021706 26.3359375 137.8125 C26.33115387 136.71784424 26.32637024 135.62318848 26.32144165 134.49536133 C26.31804079 132.18211428 26.32725608 129.8688193 26.34814453 127.55566406 C26.37490496 124.01258289 26.3484004 120.47267 26.31640625 116.9296875 C26.31971031 114.68228467 26.32611646 112.4348838 26.3359375 110.1875 C26.32581635 109.12700439 26.31569519 108.06650879 26.30526733 106.97387695 C26.42289761 99.60127722 26.42289761 99.60127722 29.45947266 96.4375 C30.29784668 95.963125 31.1362207 95.48875 32 95 C34.58027235 90.69954608 34.67615884 85.87502176 34 81 C32.6691467 77.25922316 30.76973685 74.60768698 27.625 72.125 C21.83967895 69.64557669 17.87636311 69.8458825 12.0546875 71.97265625 C8.45939166 73.77030417 6.74835155 76.5032969 5 80 C4.47059979 85.31135952 4.33636371 89.67272741 6.75 94.5 C8.80351133 97.01283589 8.80351133 97.01283589 11.12138367 98.32557678 C13 100 13 100 13.41804504 102.4059906 C13.38168442 103.35796829 13.34532379 104.30994598 13.30786133 105.29077148 C13.27916458 106.3729747 13.25046783 107.45517792 13.22090149 108.57017517 C13.17507431 109.7419783 13.12924713 110.91378143 13.08203125 112.12109375 C13.04289906 114.60867388 13.00720363 117.09630999 12.97460938 119.58398438 C12.90484639 123.50319528 12.81330468 127.41682075 12.66088867 131.33374023 C11.37078683 146.76680504 11.37078683 146.76680504 17.19750977 160.29003906 C20.24885458 162.97828087 23.51895029 165.04147243 27.10424805 166.94235229 C30.10056242 168.61400824 32.64203611 170.72519689 35.3125 172.875 C36.91857601 174.1055259 38.52465762 175.33604449 40.13085938 176.56640625 C43.9480135 179.49408768 47.75726973 182.43184162 51.5625 185.375 C52.33698486 185.97038574 53.11146973 186.56577148 53.90942383 187.17919922 C54.64185303 187.74654785 55.37428223 188.31389648 56.12890625 188.8984375 C57.10452515 189.65133057 57.10452515 189.65133057 58.09985352 190.41943359 C60.19798439 192.16468598 62.09731708 194.04526479 64 196 C57.52634336 196.10228521 51.05289872 196.17183275 44.57861328 196.21972656 C42.38094292 196.23971418 40.18332486 196.26691362 37.98583984 196.30175781 C14.10903797 196.67059528 14.10903797 196.67059528 5 192 C4.14169523 191.63559877 3.28339046 191.27119755 2.39907646 190.89575386 C0 189 0 189 -0.63364983 185.69758415 C-0.66336767 184.3016192 -0.66528359 182.90490614 -0.64596558 181.50875854 C-0.65502682 180.73919299 -0.66408806 179.96962744 -0.67342389 179.17674172 C-0.69777409 176.58988575 -0.68641042 174.00440943 -0.67529297 171.41748047 C-0.68537867 169.56645448 -0.69764309 167.71543926 -0.71192932 165.86444092 C-0.74443605 160.83154658 -0.74598013 155.7990605 -0.74183035 150.76608038 C-0.74242672 145.50805482 -0.77037329 140.25017485 -0.79519653 134.99221802 C-0.83301571 126.16358072 -0.85254157 117.33506105 -0.859375 108.50634766 C-0.86907914 96.03870595 -0.9132728 83.5713565 -0.96360183 71.10382247 C-0.99710188 62.4855258 -1.0223312 53.86720178 -1.04601526 45.24887323 C-1.05181543 43.15433769 -1.05785275 41.0598028 -1.06412268 38.96526861 C-1.08171127 32.99740852 -1.09418329 27.02958427 -1.09817314 21.06169891 C-1.10009319 19.24959934 -1.10371719 17.4375007 -1.10912132 15.62540817 C-1.11610162 13.16267348 -1.11689607 10.70001667 -1.11593628 8.23727417 C-1.11932947 7.51073509 -1.12272266 6.78419601 -1.12621868 6.0356406 C-1.11426386 1.11426386 -1.11426386 1.11426386 0 0 Z " fill="#00DBFD" transform="translate(362,259)"/>
<path d="M0 0 C0.33 0 0.66 0 1 0 C1.02286661 51.68795584 1.04049835 103.37591118 1.05106533 155.06387108 C1.0523161 161.15993099 1.05361042 167.25599089 1.05493164 173.35205078 C1.05532511 175.17254825 1.05532511 175.17254825 1.05572652 177.02982344 C1.06008312 196.70611386 1.06797061 216.38240137 1.0771528 236.05869006 C1.08648962 256.23394093 1.09205567 276.40919027 1.09408849 296.58444321 C1.09546366 309.04327108 1.09981393 321.50209072 1.10791647 333.96091606 C1.11318427 342.49325579 1.11480422 351.02559124 1.11350138 359.55793248 C1.11285805 364.48768456 1.1138749 369.41742224 1.11920547 374.34717178 C1.12404308 378.8536807 1.12433624 383.3601654 1.12089889 387.86667539 C1.12047356 389.50330898 1.12176626 391.13994404 1.12488318 392.77657472 C1.12885386 394.9888307 1.12675915 397.20099748 1.12304783 399.41325188 C1.12342755 400.64582407 1.12380727 401.87839626 1.1241985 403.14831913 C1 406 1 406 0 408 C1.65 408.66 3.3 409.32 5 410 C9.62 412.97 14.24 415.94 19 419 C19.33 284.03 19.66 149.06 20 10 C20.33 10 20.66 10 21 10 C21.33 103.39 21.66 196.78 22 293 C22 282.44 22 271.88 22 261 C25.8503105 258.43312633 27.58569763 259.16711276 32 260 C33.94634019 270.13587223 34.27552569 279.99548853 34.22705078 290.26489258 C34.22648536 291.96136976 34.22680578 293.65784744 34.22793579 295.35432434 C34.22850518 299.91956847 34.21681848 304.48470563 34.20278788 309.04992509 C34.19021095 313.83582393 34.18910456 318.62172573 34.18673706 323.40763855 C34.18054263 332.45246709 34.1641596 341.49724677 34.14403808 350.54205388 C34.12161539 360.84686826 34.11066969 371.15168508 34.10064721 381.45651782 C34.07979139 402.63770572 34.04465537 423.81884977 34 445 C30.39579716 443.60356648 27.33477911 442.05540319 24.11328125 439.91015625 C23.18281982 439.29567627 22.2523584 438.68119629 21.29370117 438.0480957 C20.30990479 437.39284912 19.3261084 436.73760254 18.3125 436.0625 C10.13599492 430.65290707 1.9095582 425.39130038 -6.59057617 420.50219727 C-7.27869385 420.09541748 -7.96681152 419.6886377 -8.67578125 419.26953125 C-9.27302002 418.92510986 -9.87025879 418.58068848 -10.4855957 418.22583008 C-12.41532995 416.6638124 -13.04815444 415.29006131 -14 413 C-14.22705078 410.80175781 -14.22705078 410.80175781 -14.1953125 408.453125 C-14.18564453 407.18662109 -14.18564453 407.18662109 -14.17578125 405.89453125 C-14.15064453 404.58548828 -14.15064453 404.58548828 -14.125 403.25 C-14.11597656 402.36183594 -14.10695313 401.47367187 -14.09765625 400.55859375 C-14.07414577 398.37211942 -14.04128499 396.18619906 -14 394 C-14.97287964 394.12959106 -15.94575928 394.25918213 -16.94812012 394.3927002 C-92.18455259 404.05191142 -92.18455259 404.05191142 -120.81351089 382.12577438 C-127.08366007 377.06158817 -132.86690204 371.57094475 -138.48989868 365.80307007 C-140.53874049 363.71175209 -142.62602184 361.66630664 -144.72314453 359.62353516 C-159.08405677 345.40711545 -168.47382419 332.3337095 -168.79161072 311.60224915 C-168.7151214 304.28605439 -168.1959896 297.02738922 -167.45109558 289.75152588 C-166.79521623 283.29652637 -166.74523506 276.86039631 -166.6875 270.375 C-166.62123127 267.17174095 -166.41828526 264.18663123 -166 261 C-162.69477196 258.79651464 -161.72339001 258.75436615 -157.88598633 258.77294922 C-156.84513382 258.77310028 -155.80428131 258.77325134 -154.73188782 258.77340698 C-153.60993515 258.78372955 -152.48798248 258.79405212 -151.33203125 258.8046875 C-150.18208176 258.8075174 -149.03213226 258.81034729 -147.84733582 258.81326294 C-144.16895204 258.82447167 -140.49081038 258.84957776 -136.8125 258.875 C-134.32096705 258.88502889 -131.8294303 258.8941549 -129.33789062 258.90234375 C-123.22517759 258.92441327 -117.11260609 258.95789776 -111 259 C-109.85049497 262.44851508 -110.18611995 263.58412491 -111.1875 267 C-111.42855469 267.86625 -111.66960937 268.7325 -111.91796875 269.625 C-113.20455489 272.44898691 -114.32666534 273.45992677 -117 275 C-121.57674935 276.33664768 -125.27006228 276.22735765 -129.8125 274.8125 C-133 273 -133 273 -134.65234375 270.93359375 C-138.12639622 268.07226934 -141.37227114 268.32985907 -145.75 268.25 C-146.54277344 268.22035156 -147.33554688 268.19070313 -148.15234375 268.16015625 C-150.10102094 268.08972213 -152.05051495 268.04256518 -154 268 C-154.0345438 275.54450347 -154.01454631 283.08747486 -153.95727539 290.63183594 C-153.94416519 293.19625563 -153.94337415 295.76076994 -153.95532227 298.32519531 C-153.9703702 302.01982152 -153.94059088 305.71183729 -153.90234375 309.40625 C-153.91659897 310.5461438 -153.93085419 311.6860376 -153.94554138 312.86047363 C-153.82493242 319.54627945 -152.98024355 323.29824098 -148.15513611 328.01547241 C-147.08834373 328.99781357 -147.08834373 328.99781357 -146 330 C-144.40470924 331.64936179 -142.81498535 333.30411926 -141.22973633 334.96313477 C-136.46875637 339.81227335 -131.68410196 344.63808682 -126.89282227 349.45727539 C-124.82684893 351.53670303 -122.7684368 353.62321299 -120.71606445 355.71606445 C-118.22269282 358.25857306 -115.71743488 360.78875469 -113.20294762 363.31037712 C-111.78781434 364.73549417 -110.38487548 366.17268667 -108.98213196 367.61000061 C-108.12411484 368.46516769 -107.26609772 369.32033478 -106.38208008 370.20141602 C-105.25459099 371.34103539 -105.25459099 371.34103539 -104.10432434 372.50367737 C-102.14175759 374.23503768 -102.14175759 374.23503768 -99.88871765 373.84947205 C-97.04037803 372.56839921 -94.82183069 370.75036461 -92.375 368.8125 C-91.53727051 368.15471558 -91.53727051 368.15471558 -90.68261719 367.48364258 C-89.44953987 366.5153457 -88.21851813 365.54442706 -86.98925781 364.57128906 C-84.16652289 362.34164719 -81.32679712 360.1341237 -78.48681641 357.92651367 C-77.0686785 356.82398188 -75.65156004 355.72013653 -74.23583984 354.61450195 C-73.1987085 353.80565552 -73.1987085 353.80565552 -72.140625 352.98046875 C-71.39304932 352.37203125 -70.64547363 351.76359375 -69.87524414 351.13671875 C-67.51613461 349.38356203 -65.21104659 347.92448908 -62.68530273 346.44140625 C-54.35861563 341.41912575 -54.35861563 341.41912575 -49.07122803 333.56832886 C-47.92173812 327.92370219 -48.04852073 322.33202044 -48.38793945 316.60498047 C-48.56360731 313.60609675 -48.61341022 310.62465234 -48.64257812 307.62109375 C-48.69331136 305.69771298 -48.75100885 303.77450052 -48.81640625 301.8515625 C-48.83876846 300.96602692 -48.86113068 300.08049133 -48.88417053 299.16812134 C-49.25350643 293.47767601 -50.59472585 290.43957048 -54.63145447 286.38021851 C-56.99327961 283.99824824 -57.20627712 282.0606839 -57.3125 278.8125 C-57.22747246 274.00457938 -56.28583714 270.58202528 -53 267 C-49.12135581 263.96187464 -45.3689381 262.65619899 -40.4375 262.875 C-35.44275506 263.72185987 -32.24961394 266.20570645 -29 270 C-26.67740896 273.93830655 -26.5327544 277.4832925 -27 282 C-28.37395206 285.44196237 -29.96552361 288.31875329 -33.12612915 290.40014648 C-35.21559453 291.83959942 -35.21559453 291.83959942 -35.3868103 294.22290039 C-35.33570099 295.08906982 -35.28459167 295.95523926 -35.23193359 296.84765625 C-35.18644379 297.8329834 -35.14095398 298.81831055 -35.09408569 299.83349609 C-35.02952179 300.89906738 -34.96495789 301.96463867 -34.8984375 303.0625 C-34.81856315 305.32671733 -34.74184249 307.5910477 -34.66796875 309.85546875 C-34.53232294 313.42192527 -34.37603429 316.98265595 -34.16357422 320.54541016 C-33.06896396 339.85304422 -33.06896396 339.85304422 -36.30062866 345.11959839 C-39.44156483 348.55107336 -43.07136899 350.83984618 -47.16850281 352.97950745 C-50.22786349 354.68415368 -52.83332503 356.87342369 -55.5625 359.0625 C-56.62427932 359.88153524 -57.68784213 360.69826848 -58.75390625 361.51171875 C-62.17077052 364.13086342 -65.58604441 366.75206508 -69 369.375 C-70.03125 370.16648437 -71.0625 370.95796875 -72.125 371.7734375 C-76.71846609 375.20463695 -76.71846609 375.20463695 -81 379 C-58.56 379 -36.12 379 -13 379 C-13.33 378.34 -13.66 377.68 -14 377 C-14.09538065 374.5817678 -14.13017463 372.19252017 -14.12025452 369.7741394 C-14.12153615 368.64451568 -14.12153615 368.64451568 -14.12284368 367.49207127 C-14.12449764 364.95546512 -14.11897848 362.41892433 -14.11352539 359.88232422 C-14.11324347 358.0692444 -14.11340134 356.25616447 -14.1139679 354.44308472 C-14.1142557 349.50946626 -14.10836173 344.57587195 -14.10139394 339.64225912 C-14.09515755 334.49060277 -14.09455637 329.33894592 -14.09336853 324.18728638 C-14.09025606 314.42670704 -14.08204379 304.66613885 -14.07201904 294.90556443 C-14.0608553 283.79569466 -14.05534679 272.68582436 -14.05032361 261.57595038 C-14.03986112 238.71729406 -14.02226329 215.85864766 -14 193 C-13.67 193 -13.34 193 -13 193 C-12.67 218.41 -12.34 243.82 -12 270 C-12 266.7 -12 263.4 -12 260 C-9.03 259.67 -6.06 259.34 -3 259 C-2.01 260.485 -2.01 260.485 -1 262 C-0.505 132.31 -0.505 132.31 0 0 Z " fill="#761BED" transform="translate(314,60)"/>
<path d="M0 0 C4.90003912 4.14521923 9.64272768 8.41072035 14.3125 12.8125 C20.14415055 18.28231972 26.03283505 23.67793397 32 29 C38.17510592 34.52509477 44.30079146 40.09790054 50.35864258 45.7512207 C50.87450928 46.23034912 51.39037598 46.70947754 51.921875 47.203125 C52.4257373 47.67468018 52.92959961 48.14623535 53.44873047 48.63208008 C54.98637896 50.03035225 54.98637896 50.03035225 56.71142578 51.2487793 C59.6466689 53.40455134 60.89970655 54.46710745 61.5859375 58.11328125 C61.51632812 59.16902344 61.44671875 60.22476563 61.375 61.3125 C61.32085937 62.38113281 61.26671875 63.44976562 61.2109375 64.55078125 C61.14132812 65.35902344 61.07171875 66.16726563 61 67 C60.67 67 60.34 67 60 67 C59.67 69.31 59.34 71.62 59 74 C52.75289768 74.7707057 46.6058716 75.23679786 40.3125 75.3125 C39.08950195 75.35600586 39.08950195 75.35600586 37.84179688 75.40039062 C32.32521497 75.45836602 29.46316533 74.50869322 25 71 C19.5964787 69.19882623 14.96819781 70.51590109 10 73 C5.17634162 77.94424984 4.6533928 81.52744294 4.71484375 88.234375 C5.10983624 92.06526105 6.44647394 94.16274883 9 97 C9.70005661 97.43744034 10.40011322 97.87488068 11.12138367 98.32557678 C13 100 13 100 13.41804504 102.4059906 C13.38168442 103.35796829 13.34532379 104.30994598 13.30786133 105.29077148 C13.27916458 106.3729747 13.25046783 107.45517792 13.22090149 108.57017517 C13.17507431 109.7419783 13.12924713 110.91378143 13.08203125 112.12109375 C13.04289906 114.60867388 13.00720363 117.09630999 12.97460938 119.58398438 C12.90484639 123.50319528 12.81330468 127.41682075 12.66088867 131.33374023 C11.37078683 146.76680504 11.37078683 146.76680504 17.19750977 160.29003906 C20.24885458 162.97828087 23.51895029 165.04147243 27.10424805 166.94235229 C30.10056242 168.61400824 32.64203611 170.72519689 35.3125 172.875 C36.91857601 174.1055259 38.52465762 175.33604449 40.13085938 176.56640625 C43.9480135 179.49408768 47.75726973 182.43184162 51.5625 185.375 C52.33698486 185.97038574 53.11146973 186.56577148 53.90942383 187.17919922 C54.64185303 187.74654785 55.37428223 188.31389648 56.12890625 188.8984375 C57.10452515 189.65133057 57.10452515 189.65133057 58.09985352 190.41943359 C60.19798439 192.16468598 62.09731708 194.04526479 64 196 C57.52634336 196.10228521 51.05289872 196.17183275 44.57861328 196.21972656 C42.38094292 196.23971418 40.18332486 196.26691362 37.98583984 196.30175781 C14.10903797 196.67059528 14.10903797 196.67059528 5 192 C4.14169523 191.63559877 3.28339046 191.27119755 2.39907646 190.89575386 C0 189 0 189 -0.63364983 185.69758415 C-0.66336767 184.3016192 -0.66528359 182.90490614 -0.64596558 181.50875854 C-0.65502682 180.73919299 -0.66408806 179.96962744 -0.67342389 179.17674172 C-0.69777409 176.58988575 -0.68641042 174.00440943 -0.67529297 171.41748047 C-0.68537867 169.56645448 -0.69764309 167.71543926 -0.71192932 165.86444092 C-0.74443605 160.83154658 -0.74598013 155.7990605 -0.74183035 150.76608038 C-0.74242672 145.50805482 -0.77037329 140.25017485 -0.79519653 134.99221802 C-0.83301571 126.16358072 -0.85254157 117.33506105 -0.859375 108.50634766 C-0.86907914 96.03870595 -0.9132728 83.5713565 -0.96360183 71.10382247 C-0.99710188 62.4855258 -1.0223312 53.86720178 -1.04601526 45.24887323 C-1.05181543 43.15433769 -1.05785275 41.0598028 -1.06412268 38.96526861 C-1.08171127 32.99740852 -1.09418329 27.02958427 -1.09817314 21.06169891 C-1.10009319 19.24959934 -1.10371719 17.4375007 -1.10912132 15.62540817 C-1.11610162 13.16267348 -1.11689607 10.70001667 -1.11593628 8.23727417 C-1.11932947 7.51073509 -1.12272266 6.78419601 -1.12621868 6.0356406 C-1.11426386 1.11426386 -1.11426386 1.11426386 0 0 Z " fill="#92BFFE" transform="translate(362,259)"/>
<path d="M0 0 C2 3.75 2 3.75 2 6 C5.65079826 7.61064629 9.0507432 8.44894091 13 9 C12.2575 9.53625 11.515 10.0725 10.75 10.625 C6.97287761 13.88706024 4.36565911 16.52164383 3.61328125 21.62109375 C3.37905243 27.57373659 3.87100193 31.41222436 8 36 C8.70005661 36.43744034 9.40011322 36.87488068 10.12138367 37.32557678 C12 39 12 39 12.41804504 41.4059906 C12.38168442 42.35796829 12.34532379 43.30994598 12.30786133 44.29077148 C12.27916458 45.3729747 12.25046783 46.45517792 12.22090149 47.57017517 C12.17507431 48.7419783 12.12924713 49.91378143 12.08203125 51.12109375 C12.04289906 53.60867388 12.00720363 56.09630999 11.97460938 58.58398438 C11.90484639 62.50319528 11.81330468 66.41682075 11.66088867 70.33374023 C10.37078683 85.76680504 10.37078683 85.76680504 16.19750977 99.29003906 C19.24885458 101.97828087 22.51895029 104.04147243 26.10424805 105.94235229 C29.10056242 107.61400824 31.64203611 109.72519689 34.3125 111.875 C35.91857601 113.1055259 37.52465762 114.33604449 39.13085938 115.56640625 C42.9480135 118.49408768 46.75726973 121.43184162 50.5625 124.375 C51.72422729 125.26807861 51.72422729 125.26807861 52.90942383 126.17919922 C53.64185303 126.74654785 54.37428223 127.31389648 55.12890625 127.8984375 C56.10452515 128.65133057 56.10452515 128.65133057 57.09985352 129.41943359 C59.19798439 131.16468598 61.09731708 133.04526479 63 135 C56.52634336 135.10228521 50.05289872 135.17183275 43.57861328 135.21972656 C41.38094292 135.23971418 39.18332486 135.26691362 36.98583984 135.30175781 C13.10903797 135.67059528 13.10903797 135.67059528 4 131 C3.14091223 130.58691369 2.28182446 130.17382738 1.39670372 129.7482233 C-1 128 -1 128 -1.61803246 125.66865444 C-1.61472231 124.74485013 -1.61141216 123.82104582 -1.60800171 122.86924744 C-1.61632019 121.80783035 -1.62463867 120.74641327 -1.63320923 119.65283203 C-1.61680389 118.48856689 -1.60039856 117.32430176 -1.58349609 116.12475586 C-1.58583252 114.89858047 -1.58816895 113.67240509 -1.59057617 112.40907288 C-1.59191582 109.04499859 -1.57097796 105.68245427 -1.53990126 102.31861567 C-1.51237705 98.80151676 -1.51236229 95.284417 -1.50918579 91.76722717 C-1.49997972 85.86151132 -1.4724391 79.95611917 -1.43212891 74.05053711 C-1.37529451 65.71636529 -1.3529795 57.38235642 -1.33684421 49.0480212 C-1.32439541 43.28096294 -1.30371388 37.5139295 -1.2814641 31.74690175 C-1.27609933 30.34695496 -1.27096305 28.94700728 -1.26605177 27.54705882 C-1.24957359 22.9465887 -1.22359556 18.34625147 -1.19287109 13.74584961 C-1.18861115 12.57956024 -1.1843512 11.41327087 -1.17996216 10.2116394 C-1.17136169 9.15304214 -1.16276123 8.09444489 -1.15390015 7.00376892 C-1.14832785 6.08034163 -1.14275555 5.15691435 -1.13701439 4.20550442 C-1 2 -1 2 0 0 Z " fill="#00E1FB" transform="translate(363,320)"/>
<path d="M0 0 C2 4 2 4 2 6 C5.3 6.33 8.6 6.66 12 7 C12 5.35 12 3.7 12 2 C12.66 1.67 13.32 1.34 14 1 C14.00410889 1.85231201 14.00821777 2.70462402 14.01245117 3.58276367 C14.0395042 6.76095348 14.0886643 9.93783292 14.15258789 13.11547852 C14.17570978 14.48775431 14.19015003 15.86020609 14.19555664 17.23266602 C14.20488665 19.21134471 14.24857019 21.18976624 14.29296875 23.16796875 C14.3086792 24.35672607 14.32438965 25.5454834 14.34057617 26.77026367 C15.17671406 30.86551286 16.94192554 32.25499647 20 35 C21.35682449 39.07047347 21.52472254 42.74391717 21 47 C19.3125 50.3125 19.3125 50.3125 17 53 C16.34 53.78375 15.68 54.5675 15 55.375 C10.14607964 58.00420686 5.3793285 57.94636335 0 57 C-3.90944076 54.97113506 -6.22230183 52.3187056 -8.4375 48.5625 C-9.7636199 42.52128712 -9.27897932 38.2697882 -6 33 C-3.9375 30.625 -3.9375 30.625 -2 29 C-1.34 29 -0.68 29 0 29 C0 19.43 0 9.86 0 0 Z " fill="#4A46FC" transform="translate(220,310)"/>
<path d="M0 0 C0.33 0 0.66 0 1 0 C1.33 9.57 1.66 19.14 2 29 C5.96 28.67 9.92 28.34 14 28 C14 27.34 14 26.68 14 26 C15.16917969 25.98582031 16.33835938 25.97164063 17.54296875 25.95703125 C19.09118457 25.91011562 20.63936044 25.86186831 22.1875 25.8125 C22.95642578 25.80669922 23.72535156 25.80089844 24.51757812 25.79492188 C28.78386728 25.63012959 30.48912909 25.43588712 33.84765625 22.5703125 C34.55792969 21.72210938 35.26820313 20.87390625 36 20 C40.11230138 17.54843572 42.96099676 16.68651106 47.625 17.5 C53.17813077 19.02309038 55.87123037 22.30684555 59 27 C60.68240679 32.43546809 59.39562668 36.98712478 57 42 C56.01 42.495 56.01 42.495 55 43 C55.66 39.37 56.32 35.74 57 32 C49.47029868 31.97535968 41.94062061 31.95716859 34.41088867 31.94506836 C31.84708243 31.9400263 29.28327909 31.93319286 26.71948242 31.92456055 C23.04344979 31.91248936 19.36745502 31.90677058 15.69140625 31.90234375 C14.53725723 31.89718246 13.38310822 31.89202118 12.19398499 31.88670349 C11.13296066 31.88662796 10.07193634 31.88655243 8.97875977 31.88647461 C8.03944107 31.884254 7.10012238 31.88203339 6.13233948 31.87974548 C4.01636959 31.76157355 4.01636959 31.76157355 3 33 C2.77049646 36.1301733 2.61455224 39.23955633 2.5 42.375 C2.44017944 43.89287109 2.44017944 43.89287109 2.37915039 45.44140625 C1.70842074 63.62040244 1.38719078 81.81323836 1 100 C0.67 100 0.34 100 0 100 C0 67 0 34 0 0 Z " fill="#1952EC" transform="translate(146,288)"/>
<path d="M0 0 C0.33 0.66 0.66 1.32 1 2 C-0.354422 1.83226074 -0.354422 1.83226074 -1.73620605 1.66113281 C-13.30319861 0.30358781 -24.86206468 -0.55108101 -36.5 -1 C-37.42629211 -1.03605976 -38.35258423 -1.07211952 -39.3069458 -1.109272 C-63.70677081 -1.91323044 -82.40273997 0.49934297 -100.86332703 17.38212204 C-113.51786065 29.35210344 -124.75371943 42.9570121 -135.18530273 56.88075256 C-135.78415283 57.58010422 -136.38300293 58.27945587 -137 59 C-137.66 59 -138.32 59 -139 59 C-139 89.69 -139 120.38 -139 152 C-139.66 152 -140.32 152 -141 152 C-151.64451895 65.31654431 -151.64451895 65.31654431 -127.83169556 34.64373779 C-93.61030394 -7.12254395 -50.02218589 -7.07177228 0 0 Z " fill="#00D3F6" transform="translate(300,85)"/>
<path d="M0 0 C4.78515625 4.00390625 4.78515625 4.00390625 7 6 C7.59087402 6.44859375 8.18174805 6.8971875 8.79052734 7.359375 C11.81758075 9.89715334 13.73538556 11.76271248 14.57836914 15.7043457 C14.72393229 18.78952495 14.66150928 21.79094187 14.5 24.875 C14.47679687 25.93203125 14.45359375 26.9890625 14.4296875 28.078125 C14.21166088 35.78833912 14.21166088 35.78833912 13 37 C-1.54712024 38.40059801 -1.54712024 38.40059801 -6.61328125 35.5078125 C-8.31014052 33.75645026 -9.6682374 32.03681339 -11 30 C-11.66 29.34 -12.32 28.68 -13 28 C-12.38253906 27.59910156 -11.76507813 27.19820313 -11.12890625 26.78515625 C-4.92477733 22.62074095 1.59139234 18.13125127 6 12 C5.837023 8.6150931 4.91657697 7.91657697 2.4375 5.4375 C1.633125 4.633125 0.82875 3.82875 0 3 C0 2.01 0 1.02 0 0 Z " fill="#2FCEFF" transform="translate(489,282)"/>
<path d="M0 0 C19.8 0 39.6 0 60 0 C60 0.66 60 1.32 60 2 C58.46875 3.2890625 58.46875 3.2890625 56.5 4.625 C55.8503125 5.07101563 55.200625 5.51703125 54.53125 5.9765625 C54.0259375 6.31429687 53.520625 6.65203125 53 7 C52.505 6.505 52.505 6.505 52 6 C40.00742232 5.29134768 28.70075152 6.41752121 17 9 C15.79214844 9.26296875 14.58429688 9.5259375 13.33984375 9.796875 C7.63925683 10.88144515 7.63925683 10.88144515 3 14 C2.01 14 1.02 14 0 14 C0 9.38 0 4.76 0 0 Z " fill="#47CBFF" transform="translate(362,83)"/>
<path d="M0 0 C3.5747899 1.5180728 5.85811724 3.61574711 8.58496094 6.35791016 C9.48559265 7.25869293 10.38622437 8.15947571 11.31414795 9.08755493 C12.28766481 10.07128408 13.26107125 11.0551225 14.234375 12.0390625 C15.23713161 13.04555128 16.24033222 14.05159789 17.24395752 15.05722046 C19.87873813 17.69962147 22.50745611 20.34797428 25.13494873 22.99761963 C27.81939688 25.70256052 30.50954622 28.40181821 33.19921875 31.1015625 C38.47173618 36.39550174 43.73786057 41.69574283 49 47 C48.01 47.99 47.02 48.98 46 50 C45.52852539 49.20255371 45.05705078 48.40510742 44.57128906 47.58349609 C41.31165663 42.70829565 37.0137332 38.76822363 32.859375 34.6640625 C31.97719299 33.78471039 31.09501099 32.90535828 30.18609619 31.99935913 C27.85525554 29.6777828 25.52015422 27.36060903 23.18286133 25.04553223 C20.79272463 22.67596154 18.40833519 20.30062271 16.0234375 17.92578125 C11.35420554 13.27855199 6.67930461 8.63708575 2 4 C-3.4702684 8.5557065 -8.51926462 13.40126224 -13.5234375 18.4609375 C-14.31021881 19.25150543 -15.09700012 20.04207336 -15.90762329 20.8565979 C-18.3991986 23.36031107 -20.88748681 25.86725137 -23.375 28.375 C-26.67165536 31.69813452 -29.97153037 35.01802215 -33.2734375 38.3359375 C-34.03377289 39.10457123 -34.79410828 39.87320496 -35.57748413 40.66513062 C-36.27556183 41.36651154 -36.97363953 42.06789246 -37.69287109 42.79052734 C-38.30907318 43.41196625 -38.92527527 44.03340515 -39.56015015 44.67367554 C-41 46 -41 46 -42 46 C-42.33 55.57 -42.66 65.14 -43 75 C-43.33 75 -43.66 75 -44 75 C-47.79437402 48.20040926 -47.79437402 48.20040926 -39.875 37.31689453 C-35.01886979 31.48511986 -29.31975073 26.43979729 -23.60327148 21.47467041 C-20.89205243 19.08661364 -18.27145932 16.60278066 -15.640625 14.12695312 C-10.50942112 9.32356818 -5.28953929 4.62897502 0 0 Z " fill="#68BDEB" transform="translate(437,88)"/>
<path d="M0 0 C3.19985305 2.5998806 4.69883332 4.09649995 6 8 C5.67 8.66 5.34 9.32 5 10 C-23.93263641 10.20638953 -23.93263641 10.20638953 -38 9 C-38 8.34 -38 7.68 -38 7 C-36.83082031 6.98582031 -35.66164062 6.97164063 -34.45703125 6.95703125 C-32.90881543 6.91011562 -31.36063956 6.86186831 -29.8125 6.8125 C-29.04357422 6.80669922 -28.27464844 6.80089844 -27.48242188 6.79492188 C-23.21613272 6.63012959 -21.51087091 6.43588712 -18.15234375 3.5703125 C-17.44207031 2.72210938 -16.73179687 1.87390625 -16 1 C-10.28992824 -2.40408124 -6.01522721 -2.5119769 0 0 Z " fill="#0269F6" transform="translate(198,307)"/>
<path d="M0 0 C6.6 0 13.2 0 20 0 C20.18117928 7.70186135 20.3277549 15.40292251 20.41449738 23.10640049 C20.45614449 26.68412888 20.51256595 30.26031659 20.60351562 33.8371582 C20.69083846 37.29323741 20.73835288 40.74784122 20.75901794 44.20493889 C20.78086247 46.15678018 20.84325593 48.10803238 20.90637207 50.05897522 C20.91073139 58.72148754 20.91073139 58.72148754 18.56114197 62.01991272 C16.65405273 63.66845703 16.65405273 63.66845703 14.44906616 65.24043274 C11.56782682 67.31050112 9.20167919 69.65267447 6.70141602 72.16918945 C5.73480673 73.13306181 4.76796829 74.09670441 3.80091858 75.06013489 C2.78511971 76.07772249 1.76945192 77.09544096 0.75390625 78.11328125 C-0.30829045 79.17480293 -1.37063543 80.23617624 -2.43312073 81.29740906 C-4.64250511 83.50532963 -6.85009677 85.71502254 -9.05639648 87.92602539 C-11.8865068 90.76187442 -14.72114035 93.59315327 -17.55709743 96.42315388 C-19.74385573 98.6063066 -21.92823672 100.79182539 -24.11189461 102.97807884 C-25.15697887 104.02383021 -26.20280656 105.06883917 -27.24938774 106.11309242 C-28.70441392 107.56558764 -30.15621109 109.02123425 -31.60717773 110.4777832 C-32.43354233 111.30494339 -33.25990692 112.13210358 -34.11131287 112.98432922 C-36.04893116 114.86017699 -36.04893116 114.86017699 -37 117 C-37.66 117 -38.32 117 -39 117 C-37.4581494 113.08645115 -35.05350079 111.12838894 -31.83178711 108.4934082 C-30.74205945 107.58706539 -29.65373137 106.67903791 -28.56660461 105.76957703 C-27.98999903 105.2885169 -27.41339344 104.80745678 -26.81931496 104.31181908 C5.32680213 78.79931106 5.32680213 78.79931106 20.80078125 42.73828125 C21.70461624 29.10030409 20.34909286 15.43345317 18 2 C11.73 2.33 5.46 2.66 -1 3 C-0.67 2.01 -0.34 1.02 0 0 Z " fill="#00EAFD" transform="translate(483,333)"/>
<path d="M0 0 C2.40298389 2.40298389 2.2501239 2.9236032 2.2515564 6.19979858 C2.25693924 7.08025345 2.26232208 7.96070831 2.26786804 8.86784363 C2.26374405 9.83619644 2.25962006 10.80454926 2.25537109 11.80224609 C2.25899155 12.82023788 2.262612 13.83822968 2.26634216 14.8870697 C2.27324863 17.10296099 2.27573927 19.31886933 2.27439499 21.53477097 C2.2734331 25.0394627 2.28633186 28.54384488 2.30337524 32.04849243 C2.34975178 42.01472564 2.37426032 51.98092831 2.38085938 61.94726562 C2.38586569 68.03807311 2.41007278 74.12855874 2.44618607 80.21925735 C2.45600622 82.54369807 2.45830402 84.86818295 2.45301437 87.1926384 C2.44596794 90.4417652 2.46317733 93.68992909 2.48583984 96.93896484 C2.47766739 97.9032692 2.46949493 98.86757355 2.46107483 99.86109924 C2.46027282 105.14607505 2.46027282 105.14607505 5.03213501 109.6288147 C5.68153046 110.08130585 6.3309259 110.533797 7 111 C4 111 4 111 1.84088135 109.64227295 C-1.01717419 105.54001897 -0.52533054 101.60798009 -0.45410156 96.72363281 C-0.45468567 95.67941666 -0.45526978 94.6352005 -0.45587158 93.55934143 C-0.45308428 90.10693146 -0.42196052 86.6553842 -0.390625 83.203125 C-0.38316494 80.80988029 -0.3774709 78.41662947 -0.37347412 76.02337646 C-0.35819944 69.72348169 -0.31890123 63.42395562 -0.2746582 57.12420654 C-0.2337454 50.69613635 -0.2154716 44.2680066 -0.1953125 37.83984375 C-0.15240925 25.22640517 -0.08490385 12.61322219 0 0 Z " fill="#F5C5FE" transform="translate(362,133)"/>
<path d="M0 0 C0.66 0.33 1.32 0.66 2 1 C2 5.62 2 10.24 2 15 C-5.68931285 16.06059488 -13.24506486 16.09928082 -21 16 C-21.33 18.31 -21.66 20.62 -22 23 C-22.33 23 -22.66 23 -23 23 C-23.50636607 21.25183142 -24.00484619 19.50137737 -24.5 17.75 C-24.7784375 16.77546875 -25.056875 15.8009375 -25.34375 14.796875 C-26 12 -26 12 -26 8 C-17.42 8 -8.84 8 0 8 C0 5.36 0 2.72 0 0 Z " fill="#42CCFD" transform="translate(421,325)"/>
<path d="M0 0 C0.66 0 1.32 0 2 0 C2 29.37 2 58.74 2 89 C-2.5689931 87.17240276 -6.22265107 85.13671002 -10.3125 82.5 C-11.28026367 81.89478516 -11.28026367 81.89478516 -12.26757812 81.27734375 C-13.88281262 80.24154258 -15.44672883 79.12659452 -17 78 C-17 77.34 -17 76.68 -17 76 C-11.12562938 78.12637181 -6.20629124 81.61277437 -1 85 C-0.08607277 65.94958549 0.12487379 46.94490375 0.0625 27.875 C0.05687755 25.15104314 0.05283683 22.42708466 0.04882812 19.703125 C0.03798894 13.13539607 0.02140281 6.56770258 0 0 Z " fill="#C200FB" transform="translate(346,416)"/>
<path d="M0 0 C18.48 0 36.96 0 56 0 C56 0.33 56 0.66 56 1 C55.14172607 1.02187378 55.14172607 1.02187378 54.26611328 1.04418945 C41.26365244 1.41149794 28.75726468 2.46418908 16 5 C13.90429688 5.39648438 13.90429688 5.39648438 11.80859375 5.79296875 C6.86776355 6.74789745 6.86776355 6.74789745 2 8 C1.67 8.66 1.34 9.32 1 10 C0 7 0 7 0 0 Z " fill="#36CCFF" transform="translate(362,85)"/>
<path d="M0 0 C0.495 8.415 0.495 8.415 1 17 C-4.61 17 -10.22 17 -16 17 C-14.98622795 11.93113977 -14.69301461 11.20888005 -11.1875 7.9375 C-10.50042969 7.28652344 -9.81335938 6.63554687 -9.10546875 5.96484375 C-8.41066406 5.31644531 -7.71585937 4.66804688 -7 4 C-6.31550781 3.25878906 -5.63101562 2.51757812 -4.92578125 1.75390625 C-3 0 -3 0 0 0 Z " fill="#01BEEC" transform="translate(501,302)"/>
<path d="M0 0 C8.79919944 1.56225856 16.52550438 11.65291638 22.75 17.5625 C24.04905777 18.79545303 24.04905777 18.79545303 25.37435913 20.05331421 C42.79639315 36.96736568 42.79639315 36.96736568 43.57876587 49.8377533 C43.62203227 56.65447382 42.6503974 63.39360674 41 70 C40.67 70 40.34 70 40 70 C40.17394287 69.29544678 40.34788574 68.59089355 40.52709961 67.86499023 C42.44481275 58.49058539 43.19578714 48.82315608 39 40 C29.16807468 25.55585366 14.5715573 13.79368851 1.47386169 2.39897156 C0.98748734 1.93731094 0.50111298 1.47565033 0 1 C0 0.67 0 0.34 0 0 Z " fill="#00A4B2" transform="translate(234,100)"/>
<path d="M0 0 C0.66 0 1.32 0 2 0 C1.67 0.99 1.34 1.98 1 3 C0.22658545 11.17561372 0.07898755 19.42738057 -0.11837482 27.63499355 C-0.21076885 31.39012586 -0.34001452 35.1352188 -0.5637207 38.88500977 C-2.07223879 57.86325722 -2.07223879 57.86325722 5.54541016 74.55908203 C10.25925656 79.59022011 15.40328072 83.98130572 21 88 C20.01 88.99 20.01 88.99 19 90 C10.53623534 84.07988283 0.33366821 76.71506783 -2.097229 66.0869751 C-3.67101953 56.41040036 -2.97537396 46.4397941 -2.43157959 36.69921875 C-2.23110439 32.68108326 -2.154939 28.66050916 -2.06445312 24.63867188 C-1.47024474 1.47024474 -1.47024474 1.47024474 0 0 Z " fill="#0086EB" transform="translate(173,163)"/>
<path d="M0 0 C0.33 0 0.66 0 1 0 C1.33 9.9 1.66 19.8 2 30 C4.97 30.33 7.94 30.66 11 31 C11 30.34 11 29.68 11 29 C11.66 29 12.32 29 13 29 C13 36.26 13 43.52 13 51 C12.67 51 12.34 51 12 51 C11.93941406 49.94039063 11.87882812 48.88078125 11.81640625 47.7890625 C11.73199873 46.40102779 11.64735083 45.01300768 11.5625 43.625 C11.50352539 42.57699219 11.50352539 42.57699219 11.44335938 41.5078125 C11.25719866 37.62639508 11.25719866 37.62639508 10 34 C7.03 34 4.06 34 1 34 C1.0721875 35.02738281 1.144375 36.05476563 1.21875 37.11328125 C2.76678185 59.84982722 2.76678185 59.84982722 0 64 C0 42.88 0 21.76 0 0 Z " fill="#226DFF" transform="translate(301,286)"/>
<path d="M0 0 C4.88049925 3.9419417 9.0580583 8.11950075 13 13 C11.9790625 13.2784375 11.9790625 13.2784375 10.9375 13.5625 C7.51254127 15.23854363 5.58326179 17.31193132 2.98046875 20.046875 C-0.39796142 23.37866018 -4.20221701 26.16673332 -8 29 C-7.01 30.32 -6.02 31.64 -5 33 C-8 33 -8 33 -10.6875 30.5 C-11.450625 29.675 -12.21375 28.85 -13 28 C-12.38253906 27.59910156 -11.76507813 27.19820313 -11.12890625 26.78515625 C-4.92477733 22.62074095 1.59139234 18.13125127 6 12 C5.837023 8.6150931 4.91657697 7.91657697 2.4375 5.4375 C1.633125 4.633125 0.82875 3.82875 0 3 C0 2.01 0 1.02 0 0 Z " fill="#42C4F0" transform="translate(489,282)"/>
<path d="M0 0 C19.8 0 39.6 0 60 0 C60 0.66 60 1.32 60 2 C56.72172434 2.99052082 53.82114594 3.09096917 50.40527344 3.02172852 C48.72398346 2.99158409 48.72398346 2.99158409 47.00872803 2.96083069 C45.20229828 2.92027809 45.20229828 2.92027809 43.359375 2.87890625 C42.12205627 2.85529526 40.88473755 2.83168427 39.60992432 2.80735779 C36.32847874 2.74378104 33.04717266 2.67556732 29.76586914 2.60510254 C26.41430013 2.53427188 23.0626181 2.46963457 19.7109375 2.40429688 C13.14050247 2.27515191 6.57021451 2.1398924 0 2 C0 1.34 0 0.68 0 0 Z " fill="#7C9ECB" transform="translate(362,83)"/>
<path d="M0 0 C3.00828582 1.31773204 4.73996372 2.60401219 6.75 5.1875 C8.81529221 7.7141083 10.91696333 9.87396564 13.421875 11.9609375 C19.42151168 17.13586528 24.92318469 22.81675318 30.5 28.4375 C31.61955632 29.5620833 32.73934629 30.68643405 33.859375 31.81054688 C36.57561534 34.53769344 39.28868292 37.26795907 42 40 C41.34 40.66 40.68 41.32 40 42 C34.77879175 36.82506492 29.56294591 31.64478951 24.35394287 26.45756721 C21.93520784 24.0492841 19.51464152 21.64290257 17.08984375 19.24072266 C14.30439514 16.48109509 11.52699084 13.713452 8.75 10.9453125 C7.43757324 9.6483696 7.43757324 9.6483696 6.09863281 8.32522583 C5.29780273 7.52454681 4.49697266 6.7238678 3.671875 5.89892578 C2.9612793 5.1927713 2.25068359 4.48661682 1.51855469 3.75906372 C0 2 0 2 0 0 Z " fill="#00D7F7" transform="translate(220,102)"/>
<path d="M0 0 C4.18423892 3.50897269 8.19588166 7.08060535 12 11 C11.67 11.66 11.34 12.32 11 13 C8.03 10.69 5.06 8.38 2 6 C2.17273438 7.37542969 2.34546875 8.75085938 2.5234375 10.16796875 C3.16286094 16.57914901 2.91726567 22.88630848 2.625 29.3125 C2.58117187 30.46556641 2.53734375 31.61863281 2.4921875 32.80664062 C2.29003903 37.64978097 2.06112872 42.25852135 1 47 C0.67 47 0.34 47 0 47 C-0.16783252 40.46736699 -0.32779476 33.93457595 -0.48217773 27.40161133 C-0.53568392 25.17728264 -0.59101963 22.9529972 -0.64819336 20.72875977 C-0.7298646 17.53932018 -0.80504388 14.34978501 -0.87890625 11.16015625 C-0.91945885 9.65860741 -0.91945885 9.65860741 -0.96083069 8.12672424 C-0.98092697 7.20584518 -1.00102325 6.28496613 -1.02172852 5.33618164 C-1.04171402 4.52121719 -1.06169952 3.70625275 -1.08229065 2.86659241 C-1 1 -1 1 0 0 Z " fill="#CCD2FF" transform="translate(362,259)"/>
<path d="M0 0 C0.33 0 0.66 0 1 0 C1 24.42 1 48.84 1 74 C0.67 74 0.34 74 0 74 C-0.33 51.89 -0.66 29.78 -1 7 C-3.97 9.475 -3.97 9.475 -7 12 C-7.66 11.34 -8.32 10.68 -9 10 C-7.52417192 8.33037631 -6.04425109 6.6643694 -4.5625 5 C-3.73878906 4.071875 -2.91507812 3.14375 -2.06640625 2.1875 C-1.04353516 1.1046875 -1.04353516 1.1046875 0 0 Z " fill="#9EAAFE" transform="translate(488,154)"/>
<path d="M0 0 C0.33 0 0.66 0 1 0 C1.33 6.27 1.66 12.54 2 19 C7.81648129 18.19900426 7.81648129 18.19900426 13 16 C14.17082878 13.07085835 14.17082878 13.07085835 15 10 C15.99 9.01 16.98 8.02 18 7 C17.34 12.28 16.68 17.56 16 23 C14.68 22.34 13.36 21.68 12 21 C9.38621039 21.18552421 9.38621039 21.18552421 6.75 21.875 C5.85796875 22.07867187 4.9659375 22.28234375 4.046875 22.4921875 C3.37140625 22.65976562 2.6959375 22.82734375 2 23 C1.67 25.31 1.34 27.62 1 30 C0.67 30 0.34 30 0 30 C0 20.1 0 10.2 0 0 Z " fill="#64DEFF" transform="translate(438,308)"/>
<path d="M0 0 C0.33 0 0.66 0 1 0 C1 8.58 1 17.16 1 26 C0.67 26 0.34 26 0 26 C-1.10228696 21.59085217 -1.07654536 17.51617599 -1 13 C-5.00254456 12.90818866 -5.00254456 12.90818866 -9 13 C-10.35677433 14.12741318 -10.35677433 14.12741318 -10.08178711 17.0793457 C-10.06801811 18.44487539 -10.04951893 19.8103622 -10.02734375 21.17578125 C-10.01469189 22.65820074 -10.00233134 24.14062275 -9.99023438 25.62304688 C-9.96544969 27.96679435 -9.93752982 30.31041268 -9.90405273 32.65405273 C-9.87379084 34.91130385 -9.85605213 37.16839154 -9.83984375 39.42578125 C-9.82638412 40.12383377 -9.8129245 40.82188629 -9.79905701 41.54109192 C-9.78019855 45.20899106 -9.97894592 47.88343992 -12 51 C-12.02470696 45.64315122 -12.04286331 40.28633556 -12.05493164 34.92944336 C-12.0599624 33.10684634 -12.06678769 31.28425335 -12.07543945 29.46166992 C-12.08755997 26.84292606 -12.09324086 24.22423553 -12.09765625 21.60546875 C-12.10281754 20.78974899 -12.10797882 19.97402924 -12.11329651 19.1335907 C-12.1136246 15.82986071 -12.05225621 13.15676862 -11 10 C-7.7 10 -4.4 10 -1 10 C-0.67 6.7 -0.34 3.4 0 0 Z " fill="#2D66FF" transform="translate(347,307)"/>
<path d="M0 0 C0.99 0.33 1.98 0.66 3 1 C2.67 16.84 2.34 32.68 2 49 C1.01 49.495 1.01 49.495 0 50 C-0.87213837 47.01318163 -1.09851289 44.42874336 -1.02172852 41.32324219 C-1.00163223 40.40258972 -0.98153595 39.48193726 -0.96083069 38.53338623 C-0.93379562 37.54783752 -0.90676056 36.56228882 -0.87890625 35.546875 C-0.85529526 34.53151672 -0.83168427 33.51615845 -0.80735779 32.47003174 C-0.73083963 29.22987475 -0.64676403 25.9899639 -0.5625 22.75 C-0.50926747 20.55209534 -0.45652715 18.3541787 -0.40429688 16.15625 C-0.27524051 10.77068133 -0.13998021 5.38529521 0 0 Z " fill="#00F5FD" transform="translate(301,35)"/>
<path d="M0 0 C2 3.75 2 3.75 2 6 C5.65079826 7.61064629 9.0507432 8.44894091 13 9 C12.2575 9.53625 11.515 10.0725 10.75 10.625 C7.82325039 13.15264739 6.01378661 15.71827368 4 19 C3.67 18.34 3.34 17.68 3 17 C0.97536745 16.34786708 0.97536745 16.34786708 -1 16 C-1.02692484 13.70839681 -1.04636124 11.41670454 -1.0625 9.125 C-1.07410156 7.84882813 -1.08570313 6.57265625 -1.09765625 5.2578125 C-1 2 -1 2 0 0 Z " fill="#42BEF2" transform="translate(363,320)"/>
<path d="M0 0 C0.33 0.66 0.66 1.32 1 2 C-3.54156555 8.13111349 -8.30061775 13.89835784 -14 19 C-14.33 19 -14.66 19 -15 19 C-15.33 28.57 -15.66 38.14 -16 48 C-16.33 48 -16.66 48 -17 48 C-19.95576132 19.77716049 -19.95576132 19.77716049 -13.21484375 11.15625 C-9.20977219 6.93986949 -4.79570562 3.28391794 0 0 Z " fill="#A196D1" transform="translate(410,115)"/>
<path d="M0 0 C2 4 2 4 2 6 C5.3 6.33 8.6 6.66 12 7 C12 5.35 12 3.7 12 2 C12.66 1.67 13.32 1.34 14 1 C14 10.24 14 19.48 14 29 C13.67 29 13.34 29 13 29 C12.93941406 27.87980469 12.87882813 26.75960938 12.81640625 25.60546875 C12.73198576 24.13280016 12.64733851 22.66014456 12.5625 21.1875 C12.52318359 20.44951172 12.48386719 19.71152344 12.44335938 18.95117188 C12.25618965 15.76928658 12.01279207 13.03837622 11 10 C9.54207116 9.94600264 8.08357288 9.90720823 6.625 9.875 C5.40683594 9.84019531 5.40683594 9.84019531 4.1640625 9.8046875 C1.78657757 9.78629949 1.78657757 9.78629949 0 12 C0 8.04 0 4.08 0 0 Z " fill="#0F4FCD" transform="translate(220,310)"/>
<path d="M0 0 C3.76603869 1.56282982 6.13639151 3.9063475 8.984375 6.7890625 C9.44483215 7.25234955 9.90528931 7.7156366 10.37969971 8.19296265 C11.84125078 9.66565898 13.29567168 11.14517403 14.75 12.625 C15.74302611 13.62806322 16.73651089 14.63067257 17.73046875 15.6328125 C20.15897941 18.08330835 22.58114675 20.5399667 25 23 C24.01 23.99 23.02 24.98 22 26 C21.53078125 25.20078125 21.0615625 24.4015625 20.578125 23.578125 C17.32510382 18.69572461 12.94336849 14.81232573 8.75 10.75 C7.09446465 9.14524794 5.44317296 7.53610222 3.796875 5.921875 C3.06823242 5.21643555 2.33958984 4.51099609 1.58886719 3.78417969 C0 2 0 2 0 0 Z " fill="#8EB6ED" transform="translate(461,112)"/>
<path d="M0 0 C0.66 0.66 1.32 1.32 2 2 C-0.50824657 3.25412328 -1.58199353 2.84308682 -4.3125 2.375 C-7.51981894 1.97922507 -8.76504636 1.90079735 -11.8125 3.1875 C-16.11123989 6.56430382 -16.11123989 6.56430382 -18.8125 11.1875 C-19.07951106 15.19266588 -18.56143385 19.03541324 -18 23 C-20.68553371 20.42636352 -21.28392557 18.28728455 -21.4375 14.6875 C-21.24401601 9.98196929 -20.21491465 6.50470977 -17 3 C-11.74279605 -1.11794531 -6.3866576 -1.88154643 0 0 Z " fill="#384AE8" transform="translate(278,324)"/>
<path d="M0 0 C-0.72265625 1.921875 -0.72265625 1.921875 -2 4 C-4.05859375 4.828125 -4.05859375 4.828125 -6.4375 5.25 C-7.61119141 5.47429687 -7.61119141 5.47429687 -8.80859375 5.703125 C-11 6 -11 6 -14 6 C-14 4.02 -14 2.04 -14 0 C-5.06382979 -2.53191489 -5.06382979 -2.53191489 0 0 Z " fill="#1DCAFF" transform="translate(453,330)"/>
<path d="M0 0 C0 7.59 0 15.18 0 23 C-0.66 23 -1.32 23 -2 23 C-2 17.72 -2 12.44 -2 7 C-5.11785113 7.64644661 -5.11785113 7.64644661 -6 10 C-7.32 9.67 -8.64 9.34 -10 9 C-9.34 9 -8.68 9 -8 9 C-7.34 7.68 -6.68 6.36 -6 5 C-5.34 5 -4.68 5 -4 5 C-4 3.68 -4 2.36 -4 1 C-2 0 -2 0 0 0 Z " fill="#13D1FC" transform="translate(503,295)"/>
<path d="M0 0 C18.48 0 36.96 0 56 0 C56 0.33 56 0.66 56 1 C55.42894531 1.00586624 54.85789062 1.01173248 54.26953125 1.01777649 C48.29899792 1.08195943 42.32899125 1.166442 36.35888672 1.26245117 C34.13402268 1.29560258 31.90907652 1.32366466 29.68408203 1.34643555 C26.4765337 1.38016145 23.26973134 1.43248712 20.0625 1.48828125 C19.07572266 1.49467117 18.08894531 1.5010611 17.07226562 1.50764465 C11.05024097 1.63440409 6.51547385 2.55279337 1 5 C0.67 3.35 0.34 1.7 0 0 Z " fill="#0EBBFF" transform="translate(362,85)"/>
<path d="M0 0 C4.17917653 0.51182223 6.10710028 2.76149845 8.984375 5.69140625 C9.67506073 6.38845924 9.67506073 6.38845924 10.37969971 7.09959412 C11.84367811 8.58031819 13.29686041 10.07114519 14.75 11.5625 C15.74279449 12.57034664 16.7362767 13.57751633 17.73046875 14.58398438 C20.16166473 17.04819461 22.58328868 19.52157329 25 22 C24.01 22.33 23.02 22.66 22 23 C18.8636964 19.88834095 15.73063335 16.77346679 12.60058594 13.65551758 C11.53442344 12.59439642 10.46736689 11.5341728 9.39941406 10.47485352 C7.86810398 8.95561777 6.3399957 7.43322584 4.8125 5.91015625 C3.89082031 4.99371338 2.96914063 4.07727051 2.01953125 3.13305664 C0 1 0 1 0 0 Z " fill="#99B6D0" transform="translate(461,256)"/>
<path d="M0 0 C3.44712983 0.58742245 5.14848172 1.75371331 7.64453125 4.16796875 C8.32193359 4.81443359 8.99933594 5.46089844 9.69726562 6.12695312 C10.39529297 6.80693359 11.09332031 7.48691406 11.8125 8.1875 C13.19261231 9.51577711 14.57411084 10.84261551 15.95703125 12.16796875 C16.62686035 12.81040527 17.29668945 13.4528418 17.98681641 14.11474609 C20.90629022 16.84869913 23.93846636 19.42671094 27 22 C26.34 22.66 25.68 23.32 25 24 C24.27296875 23.25556641 24.27296875 23.25556641 23.53125 22.49609375 C18.86386364 17.76587719 14.03526536 13.33201601 9 9 C7.32962592 7.54591461 5.66295339 6.08756621 4 4.625 C3.236875 3.95726562 2.47375 3.28953125 1.6875 2.6015625 C1.130625 2.07304687 0.57375 1.54453125 0 1 C0 0.67 0 0.34 0 0 Z " fill="#C5BCEF" transform="translate(375,273)"/>
<path d="M0 0 C3.46629835 1.48653506 5.69022036 3.45722351 8.328125 6.1328125 C9.12734375 6.93847656 9.9265625 7.74414062 10.75 8.57421875 C11.575 9.41597656 12.4 10.25773438 13.25 11.125 C14.51070312 12.39923828 14.51070312 12.39923828 15.796875 13.69921875 C17.86915683 15.79504923 19.93662393 17.89540713 22 20 C21.34 20.66 20.68 21.32 20 22 C17.1453424 19.19469153 14.29722769 16.38292304 11.45507812 13.56494141 C10.48681462 12.60675044 9.51676574 11.65036018 8.54492188 10.69580078 C7.1502903 9.3253618 5.76253479 7.94793633 4.375 6.5703125 C3.53710938 5.74289551 2.69921875 4.91547852 1.8359375 4.06298828 C0 2 0 2 0 0 Z " fill="#0095D7" transform="translate(172,231)"/>
<path d="M0 0 C0 3 0 3 -1.19335938 4.53393555 C-1.73798828 5.062854 -2.28261719 5.59177246 -2.84375 6.13671875 C-3.72353516 7.00200195 -3.72353516 7.00200195 -4.62109375 7.88476562 C-5.24113281 8.47966797 -5.86117188 9.07457031 -6.5 9.6875 C-7.12003906 10.29400391 -7.74007813 10.90050781 -8.37890625 11.52539062 C-9.91264707 13.02373743 -11.45548198 14.51276493 -13 16 C-13.33 15.34 -13.66 14.68 -14 14 C-11.15850687 8.31701374 -7.41451168 5.13471729 -2 2 C-1.34 1.34 -0.68 0.68 0 0 Z " fill="#A0C1E9" transform="translate(424,103)"/>
<path d="M0 0 C4.18423892 3.50897269 8.19588166 7.08060535 12 11 C11.67 11.66 11.34 12.32 11 13 C8.03 10.69 5.06 8.38 2 6 C2 8.31 2 10.62 2 13 C1.67 13 1.34 13 1 13 C0.63901937 11.02206479 0.28638652 9.04260427 -0.0625 7.0625 C-0.25972656 5.96035156 -0.45695312 4.85820312 -0.66015625 3.72265625 C-0.77230469 2.82417969 -0.88445312 1.92570312 -1 1 C-0.67 0.67 -0.34 0.34 0 0 Z " fill="#D0B8EB" transform="translate(362,259)"/>
<path d="M0 0 C4.32504836 1.65863505 7.09418825 4.871041 10.25 8.125 C11.08144531 8.96998047 11.08144531 8.96998047 11.9296875 9.83203125 C13.29104485 11.21686028 14.64614859 12.60783204 16 14 C15.34 14.66 14.68 15.32 14 16 C11.65861457 13.71643754 9.32833018 11.42186626 7 9.125 C5.99839844 8.14853516 5.99839844 8.14853516 4.9765625 7.15234375 C4.34492188 6.52714844 3.71328125 5.90195313 3.0625 5.2578125 C2.47597656 4.6817627 1.88945312 4.10571289 1.28515625 3.51220703 C0 2 0 2 0 0 Z " fill="#00CAEC" transform="translate(246,128)"/>
<path d="M0 0 C0 3.69349436 -0.88153908 5.00493457 -3 8 C-5.375 10.0625 -5.375 10.0625 -8 12 C-8.928125 12.7425 -9.85625 13.485 -10.8125 14.25 C-11.534375 14.8275 -12.25625 15.405 -13 16 C-13.66 15.67 -14.32 15.34 -15 15 C-10.05 10.05 -5.1 5.1 0 0 Z " fill="#72B0D3" transform="translate(433,92)"/>
<path d="M0 0 C0.66 0.33 1.32 0.66 2 1 C1.37351563 1.65226562 0.74703125 2.30453125 0.1015625 2.9765625 C-0.71570313 3.85054688 -1.53296875 4.72453125 -2.375 5.625 C-3.59316406 6.91277344 -3.59316406 6.91277344 -4.8359375 8.2265625 C-7.08732405 11.11191349 -8.06276852 13.48795677 -9 17 C-9.66 16.67 -10.32 16.34 -11 16 C-11.5 13.4375 -11.5 13.4375 -11 10 C-8.58849297 7.33553769 -5.81349083 5.22174324 -3 3 C-1.98436045 2.01588806 -0.9781668 1.02136659 0 0 Z " fill="#0278ED" transform="translate(231,294)"/>
<path d="M0 0 C-0.33 0.99 -0.66 1.98 -1 3 C-7.93 3 -14.86 3 -22 3 C-22.33 2.34 -22.66 1.68 -23 1 C-15.3164908 0.38794237 -7.70947565 -0.13292199 0 0 Z " fill="#18CAFF" transform="translate(421,338)"/>
<path d="M0 0 C5.18177917 0.47290023 8.66515852 3.17722033 12.8125 6.0625 C13.50537109 6.53494141 14.19824219 7.00738281 14.91210938 7.49414062 C16.6130648 8.6554826 18.30722395 9.8267678 20 11 C19.67 11.66 19.34 12.32 19 13 C15.82972593 11.02656652 12.66441014 9.04532029 9.5 7.0625 C8.14068359 6.21655273 8.14068359 6.21655273 6.75390625 5.35351562 C5.46806641 4.54624023 5.46806641 4.54624023 4.15625 3.72265625 C3.36025391 3.22515869 2.56425781 2.72766113 1.74414062 2.21508789 C1.16857422 1.81410889 0.59300781 1.41312988 0 1 C0 0.67 0 0.34 0 0 Z " fill="#BD00E7" transform="translate(314,469)"/>
<path d="M0 0 C0.33 0 0.66 0 1 0 C2.14935446 5.17209509 1.92858195 10.04133381 1.64453125 15.29296875 C1.71337816 18.14182989 1.71337816 18.14182989 4.01171875 19.73828125 C4.99591797 20.36283203 4.99591797 20.36283203 6 21 C6 21.66 6 22.32 6 23 C1.43243243 21.55761024 1.43243243 21.55761024 -0.1875 19.46875 C-1.42767409 15.70052873 -0.94946101 12.16299974 -0.625 8.25 C-0.56828125 7.45722656 -0.5115625 6.66445313 -0.453125 5.84765625 C-0.31216305 3.89768265 -0.1574288 1.94871329 0 0 Z " fill="#AA00D9" transform="translate(301,456)"/>
<path d="M0 0 C2.65354511 0.97296654 3.79877896 1.65792423 5.25 4.125 C6.43565401 8.67000706 6.78250249 13.04374378 5 17.5 C4.67 17.995 4.34 18.49 4 19 C3.34 19 2.68 19 2 19 C2.15984375 18.43023437 2.3196875 17.86046875 2.484375 17.2734375 C3.92771503 10.90962007 3.46094099 5.62402911 0 0 Z " fill="#00BDEB" transform="translate(276,174)"/>
<path d="M0 0 C0.33 0.99 0.66 1.98 1 3 C-1.15859924 6.83750975 -3.28595371 9.61239881 -7 12 C-7.66 11.34 -8.32 10.68 -9 10 C-6.03 6.7 -3.06 3.4 0 0 Z " fill="#ABBDED" transform="translate(488,154)"/>
<path d="M0 0 C4.21654356 1.48635116 7.62478605 3.61249159 11.3125 6.125 C12.38113281 6.84945312 13.44976562 7.57390625 14.55078125 8.3203125 C15.76314453 9.15175781 15.76314453 9.15175781 17 10 C16.01 10.33 15.02 10.66 14 11 C11.47997402 9.64757628 9.18119063 8.26741903 6.8125 6.6875 C6.15830078 6.27048828 5.50410156 5.85347656 4.83007812 5.42382812 C3.17828982 4.34387894 1.58355519 3.17772995 0 2 C0 1.34 0 0.68 0 0 Z " fill="#00DEEC" transform="translate(316,57)"/>
<path d="M0 0 C3.01574271 1.03991128 3.97991051 1.96914829 5.75 4.6875 C7.44547713 9.18051439 7.8477102 12.93370639 6 17.4375 C5.67 17.953125 5.34 18.46875 5 19 C4.03070992 16.09212976 3.99568724 14.71532158 4.1875 11.75 C4.27742031 6.75533569 2.77945164 4.0823196 0 0 Z " fill="#3551E7" transform="translate(280,327)"/>
<path d="M0 0 C0.33 0 0.66 0 1 0 C1.84349132 7.47743661 2.39900513 13.80298461 0 21 C-0.33 21 -0.66 21 -1 21 C-1.02710123 18.4374282 -1.04688771 15.87514635 -1.0625 13.3125 C-1.07087891 12.59126953 -1.07925781 11.87003906 -1.08789062 11.12695312 C-1.10543632 7.28444618 -0.93524221 3.73360474 0 0 Z " fill="#8DD8FF" transform="translate(363,301)"/>
<path d="M0 0 C4.10447392 0.51776621 5.95699523 2.64627444 8.75 5.5625 C9.94882812 6.80193359 9.94882812 6.80193359 11.171875 8.06640625 C11.77515625 8.70449219 12.3784375 9.34257812 13 10 C12.01 10.33 11.02 10.66 10 11 C8.33035479 9.35718838 6.6643536 7.71067239 5 6.0625 C4.071875 5.14597656 3.14375 4.22945313 2.1875 3.28515625 C0 1 0 1 0 0 Z " fill="#B7AED7" transform="translate(461,256)"/>
<path d="M0 0 C-3.64116773 3.33773709 -7.28607242 3.97864902 -12 5 C-11.67 3.68 -11.34 2.36 -11 1 C-3.57142857 -1.42857143 -3.57142857 -1.42857143 0 0 Z " fill="#36C9FF" transform="translate(451,329)"/>
<path d="M0 0 C0.33 0.99 0.66 1.98 1 3 C0.40832031 3.10957031 -0.18335938 3.21914062 -0.79296875 3.33203125 C-5.41345763 4.25914403 -9.0876779 5.22351335 -13 8 C-13 7.01 -13 6.02 -13 5 C-8.57221156 2.25477117 -5.28137429 0.51525603 0 0 Z " fill="#CF9BD4" transform="translate(416,213)"/>
<path d="M0 0 C-3.45207476 1.96529009 -6.88476226 2.7746477 -10.75 3.625 C-11.92046875 3.88539062 -13.0909375 4.14578125 -14.296875 4.4140625 C-15.18890625 4.60742188 -16.0809375 4.80078125 -17 5 C-16.67 4.01 -16.34 3.02 -16 2 C-10.82393002 -0.52167512 -5.61441624 -0.19972232 0 0 Z " fill="#27CAFF" transform="translate(381,86)"/>
<path d="M0 0 C2.53541298 0.09086451 5.03554784 0.2370945 7.5625 0.4375 C8.62887695 0.51581055 8.62887695 0.51581055 9.71679688 0.59570312 C11.47821999 0.72574107 13.23916173 0.86226897 15 1 C15 1.33 15 1.66 15 2 C8.565 2.495 8.565 2.495 2 3 C2 5.64 2 8.28 2 11 C1.67 11 1.34 11 1 11 C0.63890458 9.35567294 0.28629924 7.7094792 -0.0625 6.0625 C-0.25972656 5.14597656 -0.45695312 4.22945313 -0.66015625 3.28515625 C-0.77230469 2.53105469 -0.88445312 1.77695312 -1 1 C-0.67 0.67 -0.34 0.34 0 0 Z " fill="#28D2F9" transform="translate(397,337)"/>
<path d="M0 0 C0.66 0 1.32 0 2 0 C1.67 0.99 1.34 1.98 1 3 C0.85164052 4.77166975 0.75229982 6.54767612 0.68359375 8.32421875 C0.64169922 9.35224609 0.59980469 10.38027344 0.55664062 11.43945312 C0.51732422 12.51130859 0.47800781 13.58316406 0.4375 14.6875 C0.39431641 15.77095703 0.35113281 16.85441406 0.30664062 17.97070312 C0.20053162 20.64700791 0.09847639 23.32340526 0 26 C-0.33 26 -0.66 26 -1 26 C-1.02886751 21.85418113 -1.04675327 17.70838784 -1.0625 13.5625 C-1.07087891 12.37849609 -1.07925781 11.19449219 -1.08789062 9.97460938 C-1.09111328 8.84990234 -1.09433594 7.72519531 -1.09765625 6.56640625 C-1.10289307 5.52427979 -1.10812988 4.48215332 -1.11352539 3.40844727 C-1 1 -1 1 0 0 Z " fill="#00CCF5" transform="translate(390,357)"/>
<path d="M0 0 C4.58716587 4.44381694 8.78762713 9.20228499 13 14 C10 14 10 14 7.51953125 11.69921875 C6.60855993 10.70313479 5.70650701 9.69883746 4.8125 8.6875 C4.34908203 8.18798828 3.88566406 7.68847656 3.40820312 7.17382812 C0 3.38414718 0 3.38414718 0 0 Z " fill="#00C0E7" transform="translate(204,179)"/>
<path d="M0 0 C0.78503906 0.07863281 1.57007813 0.15726562 2.37890625 0.23828125 C4.4375 0.6875 4.4375 0.6875 6.4375 2.6875 C3.97101267 3.92074367 2.83021575 3.61827307 0.125 3.25 C-3.13448498 2.83993576 -6.27080052 2.58131615 -9.5625 2.6875 C-6.4937495 -0.3812505 -4.10983021 -0.45363859 0 0 Z " fill="#1C53D4" transform="translate(273.5625,323.3125)"/>
<path d="M0 0 C2.38825352 3.64429796 1.94295451 6.0693436 1.125 10.25 C0.92132813 11.32765625 0.71765625 12.4053125 0.5078125 13.515625 C0.34023438 14.33546875 0.17265625 15.1553125 0 16 C-0.33 16 -0.66 16 -1 16 C-1.02692484 13.70839681 -1.04636124 11.41670454 -1.0625 9.125 C-1.07410156 7.84882813 -1.08570313 6.57265625 -1.09765625 5.2578125 C-1 2 -1 2 0 0 Z " fill="#51DEFF" transform="translate(363,320)"/>
<path d="M0 0 C0.99 0.495 0.99 0.495 2 1 C3.29920852 6.41336882 2.77234615 9.89147286 1 15 C0.67 15 0.34 15 0 15 C0 10.05 0 5.1 0 0 Z " fill="#D1A1DA" transform="translate(402,170)"/>
<path d="M0 0 C3.62276315 1.3255581 6.63505348 2.94346955 9.8125 5.125 C10.60269531 5.66382813 11.39289063 6.20265625 12.20703125 6.7578125 C12.79871094 7.16773438 13.39039063 7.57765625 14 8 C13.01 8.33 12.02 8.66 11 9 C8.30078125 7.63671875 8.30078125 7.63671875 5.3125 5.6875 C4.31863281 5.05199219 3.32476562 4.41648437 2.30078125 3.76171875 C1.16189453 2.88966797 1.16189453 2.88966797 0 2 C0 1.34 0 0.68 0 0 Z " fill="#00DBED" transform="translate(313,41)"/>
<path d="M0 0 C3.21043882 1.38188453 5.04936365 2.92421903 7.25 5.625 C8.03117187 6.57246094 8.03117187 6.57246094 8.828125 7.5390625 C9.40820312 8.26222656 9.40820312 8.26222656 10 9 C7 9 7 9 5.17578125 7.5390625 C4.56089844 6.90742187 3.94601562 6.27578125 3.3125 5.625 C2.68988281 4.99851562 2.06726563 4.37203125 1.42578125 3.7265625 C0 2 0 2 0 0 Z " fill="#7BBBEB" transform="translate(452,103)"/>
<path d="M0 0 C-1.55500981 3.81684226 -4.03595495 6.19195732 -7 9 C-7.99 8.67 -8.98 8.34 -10 8 C-8.71451591 6.66070495 -7.42141845 5.32871357 -6.125 4 C-5.04605469 2.88625 -5.04605469 2.88625 -3.9453125 1.75 C-2 0 -2 0 0 0 Z " fill="#00DCF6" transform="translate(219,102)"/>
<path d="M0 0 C1.12894876 0.93274109 2.25300876 1.87140122 3.375 2.8125 C4.00148438 3.33457031 4.62796875 3.85664063 5.2734375 4.39453125 C7 6 7 6 9 9 C4.74822077 8.52758009 2.70030797 6.15035929 0 3 C0 2.01 0 1.02 0 0 Z " fill="#63B2C2" transform="translate(489,282)"/>
<path d="M0 0 C0.99 0.33 1.98 0.66 3 1 C3 2.32 3 3.64 3 5 C3.33 5.99 3.66 6.98 4 8 C3.34 8.66 2.68 9.32 2 10 C2 9.34 2 8.68 2 8 C1.34 8 0.68 8 0 8 C0 5.36 0 2.72 0 0 Z " fill="#1DC3F5" transform="translate(364,329)"/>
<path d="M0 0 C-1.44253657 3.36591866 -3.33264727 5.51047079 -6 8 C-6.99 7.67 -7.98 7.34 -9 7 C-7.88121617 5.82737096 -6.75476949 4.66204862 -5.625 3.5 C-4.68527344 2.52546875 -4.68527344 2.52546875 -3.7265625 1.53125 C-2 0 -2 0 0 0 Z " fill="#00D9F8" transform="translate(209,112)"/>
<path d="M0 0 C3.39192363 0.59283621 5.2107757 1.76743189 7.75 4.0625 C8.67039062 4.88427734 8.67039062 4.88427734 9.609375 5.72265625 C10.29773438 6.35494141 10.29773438 6.35494141 11 7 C10.34 7.66 9.68 8.32 9 9 C6 6 3 3 0 0 Z " fill="#C6B9EA" transform="translate(405,279)"/>
<path d="M0 0 C3.59905908 0.55550695 4.99909799 1.74887248 7.25 4.5625 C8.03117187 5.52349609 8.03117187 5.52349609 8.828125 6.50390625 C9.21484375 6.99761719 9.6015625 7.49132812 10 8 C4.98886765 6.5682479 3.05530451 4.01554307 0 0 Z " fill="#D2C3F9" transform="translate(375,273)"/>
<path d="M0 0 C1.32 0 2.64 0 4 0 C3.6875 1.875 3.6875 1.875 3 4 C2.01 4.66 1.02 5.32 0 6 C-0.66 4.68 -1.32 3.36 -2 2 C-1.34 2 -0.68 2 0 2 C0 1.34 0 0.68 0 0 Z " fill="#3FCBF9" transform="translate(367,330)"/>
<path d="M0 0 C1.12758089 3.38274266 0.81750262 4.76778223 0.0625 8.1875 C-0.13214844 9.08855469 -0.32679688 9.98960937 -0.52734375 10.91796875 C-0.68332031 11.60503906 -0.83929688 12.29210937 -1 13 C-1.33 13 -1.66 13 -2 13 C-3.45295405 4.80743982 -3.45295405 4.80743982 -1.5625 1.4375 C-1.046875 0.963125 -0.53125 0.48875 0 0 Z " fill="#51BBEF" transform="translate(455,315)"/>
<path d="M0 0 C3.99881788 0.61520275 6.80358226 2.60268669 10 5 C10 5.66 10 6.32 10 7 C6.4124787 5.66749209 3.1635377 4.169283 0 2 C0 1.34 0 0.68 0 0 Z " fill="#00C5DB" transform="translate(300,33)"/>
<path d="M0 0 C0.99 0.33 1.98 0.66 3 1 C-0.465 3.97 -0.465 3.97 -4 7 C-3.6875 4.625 -3.6875 4.625 -3 2 C-2.01 1.34 -1.02 0.68 0 0 Z " fill="#3360EE" transform="translate(263,326)"/>
<path d="M0 0 C1.29608947 0.93137592 2.58671632 1.8703566 3.875 2.8125 C4.59429687 3.33457031 5.31359375 3.85664063 6.0546875 4.39453125 C8 6 8 6 10 9 C6.71245489 8.42110619 5.06327505 7.45171589 2.75 5.0625 C2.22921875 4.53785156 1.7084375 4.01320313 1.171875 3.47265625 C0 2 0 2 0 0 Z " fill="#BBD2F9" transform="translate(428,298)"/>
<path d="M0 0 C3.25543229 0.34879632 4.01873107 1.02133261 6.25 3.5625 C6.8275 4.366875 7.405 5.17125 8 6 C5 6 5 6 3.61328125 4.6875 C2.40885417 3.125 1.20442708 1.5625 0 0 Z " fill="#B3B4DC" transform="translate(394,290)"/>
<path d="M0 0 C2.97 0.33 5.94 0.66 9 1 C6.53721199 3.46278801 4.29323018 3.99771255 1 5 C0.67 3.35 0.34 1.7 0 0 Z " fill="#07D0FF" transform="translate(362,85)"/>
<path d="M0 0 C3.36591866 1.44253657 5.51047079 3.33264727 8 6 C4.65750371 5.40312566 2.53563658 4.26396123 0 2 C0 1.34 0 0.68 0 0 Z " fill="#00D6E3" transform="translate(413,425)"/>
</svg>
